<?xml version="1.0" encoding="UTF-8"?>
<svg id="Layer_1" data-name="Layer 1" xmlns="http://www.w3.org/2000/svg" viewBox="0 0 500 500">
  <defs>
    <style>
      .cls-1 {
        fill: #fff;
        stroke-width: 0px;
      }
    </style>
  </defs>
  <path class="cls-1" d="M251.84,167.82c2.51-7.66,4.11-8.44,11.3-5.47,1.05.43,2.2.81,3.05,1.51,10.31,8.48,22.51,13.21,34.81,17.72,9.03,3.31,15.86,8.8,19.57,18.04,3.05,7.61,9.72,11.9,16.49,15.57,10.69,5.8,20.99,11.9,29.66,20.72,5.81,5.91,13.93,6.13,20.25,1.89,2.48-1.67,3.67-3.57,3.26-6.96-7.33-61.78-52.75-110.21-114.58-121.97-71.99-13.7-142.95,30.71-162.03,101.59-2.2,8.16-3.2,16.64-4.76,24.98.4.25.8.5,1.21.74,1.47-1.32,2.9-2.69,4.41-3.95,7.53-6.29,15.01-12.65,22.72-18.7,1.27-.99,3.64-.57,5.51-.8-2.19.86-4.82,1.2-6.49,2.65-14.01,12.17-24.45,26.5-25.94,45.81-.2,2.52.32,5.1.57,8.54,7.22-3.14,13.86-5.44,19.92-8.81,6.17-3.43,12.28-5.89,19.48-5.62,7.35.28,14.17-1.89,20.59-5.52,2.87-1.62,6.05-2.69,9.09-4.01.23.38.46.76.69,1.13-3.79,4.04-7.62,8.05-11.37,12.13-1.44,1.57-2.92,3.16-4,4.97-.68,1.14-1.3,3.07-.79,3.97.5.88,2.48,1.16,3.83,1.23,2.12.1,4.39.22,6.35-.42,4.12-1.35,6.86.47,9.19,2.73-10.98,3.62-21.97,7.39-33.07,10.85-8.48,2.65-16.86.9-25.14-1.39-4.02-1.11-8-2.32-12.94-3.75,4.32,18.93,12.25,35.06,23.16,50.54-.69.4-1.27.72-1.83,1.06-.55.34-1.09.71-1.62,1.05-38.79-46.42-46.4-130.71,7.46-190.35,54.48-60.33,147.1-65.73,208.25-11.81,61.14,53.91,65.8,143.79,19.23,203.04-1.08-.79-2.16-1.58-3.54-2.59,10.89-15.31,18.99-31.58,23.33-50.6-5.18,2.8-9.62,5.2-14.76,7.98-.14-2.19-.14-3.26-.28-4.32-.21-1.52-.51-3.02-.78-4.52-1.79.45-3.83.48-5.29,1.43-2.02,1.32-3.34,3.8-5.43,4.92-3.92,2.11-8.04,4.28-12.33,5.17-5.5,1.14-11.26,1.05-18.01,1.58,1.69-2.33,2.87-5.03,4.92-6.56,7.47-5.56,8.11-14.58,4.58-22.21-1.43-3.09-5.44-5.11-8.55-7.21-.9-.61-3.21-.32-4.01.45-.65.63-.15,2.62.11,3.96.26,1.38.85,2.69,1.33,4.16-16.16-.5-29.57-12.14-32.38-27.59-.52-2.87-1.22-5.89-2.65-8.37-3.57-6.18-5.86-12.62-7.37-19.65-.81-3.8-4.32-7.12-6.93-10.39-2.19-2.73-4.85-5.08-7.83-8.13,7.36-2.03,12.37,1.93,17.76,4.12.32-.44.64-.89.97-1.33-2-2.11-3.75-4.56-6.06-6.25-3.02-2.21-6.75-3.48-9.66-5.8-2.55-2.03-4.38-4.97-6.55-7.49-2.54-2.95-4.87-6.13-7.77-8.66-.89-.77-3.66-.16-5.05.68-1.42.86-2.2,2.79-3.25,4.24Z"/>
  <path class="cls-1" d="M294.21,407.11c-1.6-11.05-3.17-21.41-4.58-31.79-1.89-13.97-3.68-27.96-5.47-41.94-.33-2.6-.43-5.24-.7-7.85-.96-9.31,2.23-16.33,10.81-20.71,8.39-4.28,15.89-2.61,22.81,3.05,13.84,11.32,27.62,22.72,41.38,34.15,6.91,5.74,13.71,11.6,20.97,17.76-5.15,4.42-9.84,8.45-14.69,12.62-6.33-5.52-12.48-10.88-17.6-15.34-11.27,6.02-21.72,12.03-32.57,17.18-4.08,1.93-6.42,3.05-4.94,8.2,1.48,5.16,1.96,10.63,2.56,16,.12,1.11-.9,3.09-1.84,3.44-5.04,1.88-10.22,3.37-16.13,5.24ZM332.16,343.93c-8.7-7.58-16.8-14.72-25.04-21.69-1.09-.93-3.49-1.81-4.26-1.26-1.14.81-2.04,3-1.85,4.46,1.38,10.82,3.06,21.61,4.72,32.9,10.53-2.16,18.7-7.06,26.43-14.41Z"/>
  <path class="cls-1" d="M152.08,355.89c-6.4,5.54-12.58,10.88-18.89,16.34-4.78-4.09-9.48-8.12-14.73-12.61,7.35-6.2,14.29-12.13,21.32-17.95,13.52-11.19,27.08-22.34,40.66-33.46,7.02-5.75,14.6-7.82,23.19-3.4,8.06,4.15,11.96,10.7,10.93,19.66-2,17.43-4.33,34.82-6.58,52.21-1.09,8.45-2.3,16.89-3.51,25.33-.23,1.59-.72,3.14-1.16,5.02-6.2-1.98-12.05-3.85-18.11-5.78,1.19-7.28,2.44-14.19,3.35-21.14.18-1.39-.6-4-1.5-4.29-12.96-4.19-24.41-11.01-34.96-19.93ZM165.6,343.92c7.98,7.19,15.99,12.35,26.61,14.33,1.66-11.37,3.31-22.18,4.72-33.01.18-1.36-.53-3.6-1.53-4.14-1-.54-3.25.07-4.31.96-8.39,7.01-16.62,14.21-25.49,21.86Z"/>
  <path class="cls-1" d="M297.4,276.83c-5.48,1.5-10.88,3.46-16.45,4.36-4.1.66-8.44-.23-12.65-.08-2.84.1-6.66-.17-8.3,1.47-5.51,5.51-12.11,5.28-18.78,4.85-6.19-.4-12.35-1.34-18.51-2.2-1.53-.21-2.98-1.02-4.46-1.55-.08-.47-.16-.95-.23-1.42,1.93-.75,3.79-1.78,5.79-2.2,4.15-.89,8.59-.86,12.51-2.31,4.44-1.65,8.55-4.31,12.56-6.91,2.71-1.76,5.16-4,7.39-6.36,1.21-1.28,2.77-3.79,2.27-4.79-.85-1.7-3.15-3.63-4.92-3.7-3.59-.15-4.39-2.11-5.76-4.82-2.22-4.41-5.07-8.58-8.18-12.42-2.77-3.42-6.51-6.03-9.35-9.41-5.05-6.01-10.82-10.39-18.96-10.89-1.35-.08-2.67-.69-4.14-2.12,1.84-.84,3.61-1.94,5.54-2.47,10.14-2.75,18.7-8.42,26.99-14.58,2.96-2.2,5.91-4.13,9.79-2.08-2.4,5.99-4.91,11.48-10.82,14.8-3.67,2.07-5.17,6.25-3.1,9.85,2.87,4.99,6.45,9.76,10.53,13.8,3.8,3.75,9.07,6,12.94,9.7,3.68,3.52,7.4,7.64,9.29,12.24,4.08,9.89,10.25,15.61,21.34,15.51,2.76-.03,5.53,1.46,8.3,2.25-.22.5-.43.99-.65,1.49Z"/>
  <path class="cls-1" d="M240.14,312.61h18.17v96.83h-18.17v-96.83Z"/>
  <path class="cls-1" d="M142.59,212.65c4.67,2.98,9.2,6.23,14.06,8.86,4.26,2.3,8.83,4.12,13.43,5.65,1.27.42,3.38-.62,4.7-1.56,11.88-8.39,23.67-16.91,35.48-25.39.66-.48,1.53-.85,1.92-1.5,5.71-9.51,15.32-13.99,24.33-19.32,4.34-2.57,8.31-5.77,12.45-8.68-1.52,1.82-2.76,4.01-4.6,5.38-4.73,3.51-9.76,6.61-14.59,9.98-1.87,1.31-4.08,2.59-5.2,4.45-6.12,10.15-16.38,15.71-24.98,23.08-10.19,8.73-20.58,17.21-31,25.67-1.73,1.4-3.94,2.32-6.05,3.11-5.94,2.24-11.94,4.34-17.94,6.4-1.61.55-3.32.8-4.98,1.19-.27-.37-.53-.74-.8-1.11,2.32-3.22,4.3-6.77,7.05-9.57,3.84-3.93,2.98-8.73,3.43-13.34.04-.45-.13-1.23-.42-1.36-5.29-2.3-4.4-7.85-6.3-11.92Z"/>
</svg>