<?xml version="1.0" encoding="UTF-8"?>
<svg id="Layer_1" data-name="Layer 1" xmlns="http://www.w3.org/2000/svg" viewBox="0 0 500 500">
  <defs>
    <style>
      .cls-1 {
        letter-spacing: .02em;
      }

      .cls-2 {
        letter-spacing: -.08em;
      }

      .cls-3 {
        letter-spacing: .01em;
      }

      .cls-4 {
        letter-spacing: .04em;
      }

      .cls-5 {
        letter-spacing: .01em;
      }

      .cls-6 {
        letter-spacing: -.01em;
      }

      .cls-7 {
        letter-spacing: 0em;
      }

      .cls-8 {
        letter-spacing: 0em;
      }

      .cls-9 {
        font-family: AcuminVariableConcept, 'Acumin Variable Concept';
        font-size: 26.36px;
        font-variation-settings: 'wght' 194, 'wdth' 100, 'slnt' 0;
      }

      .cls-9, .cls-10 {
        fill: #fff;
      }

      .cls-11 {
        letter-spacing: 0em;
      }

      .cls-12 {
        fill: none;
        stroke: #fff;
        stroke-miterlimit: 10;
      }

      .cls-13 {
        letter-spacing: .01em;
      }

      .cls-14 {
        letter-spacing: 0em;
      }

      .cls-15 {
        letter-spacing: .04em;
      }

      .cls-10 {
        stroke-width: 0px;
      }

      .cls-16 {
        letter-spacing: 0em;
      }

      .cls-17 {
        letter-spacing: 0em;
      }

      .cls-18 {
        letter-spacing: 0em;
      }
    </style>
  </defs>
  <g>
    <path class="cls-10" d="M353.37,312.71c-.45.62-1.27,1.23-1.28,1.85-.09,7.11-.05,14.23-.06,21.34,0,1.05-.1,2.11-.15,3.15h-39.25c0-2.47,0-4.73,0-7,0-5.84.04-11.68-.06-17.51-.01-.62-.84-1.23-1.29-1.84-.37.6-.8,1.17-1.09,1.8-.14.3-.03.72-.03,1.08,0,17.51,0,35.02,0,52.54,0,.81.07,1.61.11,2.42,2.17.9,2.36-.28,2.36-1.89-.03-7.39-.01-14.78-.01-22.16,0-1.8,0-3.59,0-5.53h39.4c0,1.24,0,2.31,0,3.38,0,8.03,0,16.05.01,24.08,0,1.32-.27,2.98,2.31,2.15,0-18.78,0-37.38-.04-55.98,0-.63-.61-1.25-.94-1.88Z"/>
    <path class="cls-10" d="M221.61,314.7c-.32-.75-1.06-1.31-1.61-1.96-.6.7-1.43,1.31-1.78,2.13-6.67,15.46-13.29,30.95-19.92,46.43-1.31,3.06-2.61,6.13-3.92,9.19l.8.59c.56-.65,1.31-1.22,1.65-1.98,1.88-4.25,3.73-8.5,5.43-12.83.65-1.65,1.58-2.11,3.27-2.09,9.39.08,18.78.08,28.18,0,1.61-.01,2.44.51,3.04,2.01,1.73,4.31,3.66,8.53,5.39,12.84.62,1.54,1.42,2.25,3.34,1.53-.18-.49-.29-.82-.43-1.15-7.8-18.24-15.6-36.49-23.44-54.72ZM204.09,352.44c5.14-12.08,10.12-23.79,15.44-36.3,5.32,12.48,10.34,24.28,15.47,36.3h-30.9Z"/>
    <path class="cls-10" d="M418.14,368.84c-7.71-17.99-15.42-35.99-23.18-53.96-.35-.81-1.15-1.44-1.73-2.15-.59.72-1.37,1.35-1.73,2.17-5.82,13.45-11.58,26.93-17.36,40.41-2.18,5.08-4.34,10.16-6.5,15.24l.71.56c.6-.65,1.42-1.21,1.76-1.97,1.89-4.24,3.77-8.49,5.44-12.82.64-1.65,1.5-2.14,3.21-2.13,9.39.08,18.79.09,28.18,0,1.79-.02,2.58.66,3.2,2.2,1.69,4.23,3.59,8.37,5.26,12.61.68,1.72,1.62,2.29,3.39,1.62-.22-.59-.41-1.2-.66-1.77ZM377.3,352.61c5.15-12.09,10.18-23.91,15.53-36.49,5.33,12.54,10.35,24.33,15.52,36.49h-31.05Z"/>
    <path class="cls-10" d="M108.34,314.43c-.28-.66-1-1.13-1.51-1.69-.55.62-1.31,1.16-1.63,1.89-5.4,12.45-10.75,24.92-16.1,37.39-2.64,6.16-5.26,12.34-7.89,18.5.25.2.49.39.74.59.58-.66,1.38-1.22,1.72-1.99,1.89-4.24,3.72-8.51,5.46-12.82.58-1.46,1.29-2.1,2.98-2.08,9.49.08,18.98.05,28.47-.03,1.63-.01,2.45.56,3.05,2.05,1.72,4.31,3.62,8.55,5.37,12.86.66,1.63,1.58,2.23,3.26,1.49-.11-.46-.15-.83-.29-1.16-7.85-18.33-15.71-36.67-23.61-54.98ZM90.87,352.55c5.15-12.1,10.16-23.86,15.51-36.41,5.33,12.51,10.35,24.3,15.5,36.41h-31.01Z"/>
    <path class="cls-10" d="M288.15,344.47c-4.22-2.1-8.81-3.44-13.15-5.33-4.24-1.84-8.6-3.57-12.49-6.02-3.98-2.51-5.12-7.69-2.75-11.62,1.45-2.42,3.49-4.81,5.85-6.29,7.82-4.88,18.46-3.24,25.41,3.55,1.04,1.02,1.84,2.28,2.76,3.42.29-.25.59-.5.88-.74-.21-.5-.34-1.06-.66-1.49-6.8-9.39-22.05-11.88-31.42-5.15-8.74,6.28-8.33,16.79,1.08,22.04,3.71,2.07,7.85,3.36,11.77,5.04,4.59,1.97,9.36,3.62,13.7,6.06,4.64,2.61,5.97,7.44,4.09,12.32-1.39,3.6-3.76,6.44-7.24,8.24-10.29,5.33-23.72,2.07-30.88-7.47-.48-.64-1.02-1.24-1.53-1.86-.21.13-.41.25-.62.38.19.53.28,1.13.58,1.6,7.14,11.19,24.32,15.01,35.43,7.71,8.5-5.58,11.49-18.29-.8-24.39Z"/>
    <path class="cls-10" d="M168.5,342.51c-1.4-1.9-1.29-3.11.04-4.93,5.45-7.42,10.73-14.95,16.07-22.45.49-.69.91-1.43,1.36-2.15-.21-.19-.42-.39-.64-.58-.69.64-1.52,1.19-2.06,1.94-5.57,7.67-11.07,15.38-16.65,23.05-.54.75-1.42,1.75-2.16,1.77-5.36.15-10.72.08-16.46.08,0-8.12,0-15.76,0-23.41,0-.73.09-1.49-.09-2.17-.1-.37-.67-.86-1.03-.87-.36,0-.93.47-1.05.85-.19.58-.09,1.26-.09,1.9,0,17.51,0,35.02,0,52.53,0,.64-.1,1.32.08,1.9.12.37.7.83,1.05.82.37-.01.92-.5,1.02-.88.18-.69.09-1.45.09-2.17,0-8.12.06-16.23-.04-24.35-.03-2.05.61-2.71,2.65-2.63,3.64.14,7.3.15,10.94,0,2.03-.08,3.31.52,4.52,2.24,6.2,8.79,12.52,17.49,18.89,26.15.69.93,1.99,1.41,3.01,2.09.19-.25.37-.5.56-.75-.29-.44-.58-.89-.89-1.32-6.36-8.9-12.66-17.84-19.14-26.65Z"/>
  </g>
  <g>
    <polygon class="cls-12" points="323.58 110.13 323.51 110.06 323.59 110.13 323.58 110.13"/>
    <path class="cls-12" d="M301.81,219.23l.44.2c-.14.03-.29.06-.43.09-.02-.09-.02-.19-.01-.28Z"/>
    <path class="cls-12" d="M303.33,238.5c.4-.08.81-.17,1.14.2-.53.8-.88.59-1.14-.2Z"/>
    <path class="cls-12" d="M362.25,186.77v96.24h-224.51v-95.69s8.06-101.37,111.71-102.4,112.8,101.85,112.8,101.85Z"/>
    <path class="cls-12" d="M249.45,84.92v92.82"/>
    <path class="cls-12" d="M168.07,119.08c5.73,8.38,11.46,16.76,17.2,25.13,9.71,14.18,19.41,28.36,29.12,42.54.49.72.93,1.47,1.39,2.21"/>
    <path class="cls-12" d="M333.54,120.56c-6.46,9.05-12.91,18.11-19.4,27.13-8.38,11.65-16.8,23.26-25.21,34.89-1.74,2.41-3.51,4.8-5.26,7.2"/>
    <path class="cls-12" d="M359.24,172.53c-13.23,7.85-26.45,15.73-39.71,23.53-7.08,4.17-14.23,8.23-21.35,12.33"/>
    <path class="cls-12" d="M152.8,141.04c18.15,18.15,36.29,36.29,54.44,54.44"/>
    <path class="cls-12" d="M304.21,118.32c-2.92,6.39-5.82,12.79-8.77,19.16-1.78,3.85-3.64,7.67-5.47,11.5"/>
    <path class="cls-12" d="M289.43,150.08c-4.56,9.86-9.13,19.71-13.69,29.57"/>
    <path class="cls-12" d="M158.55,203.2c-6.75-2.19-13.51-4.38-20.26-6.57l56.95,18.62c-.55-.18-1.1-.37-1.64-.55"/>
    <path class="cls-12" d="M356.23,247.55c1.83.37,3.65.73,5.48,1.1,0,0-34.07-6.75-36.14-7.12"/>
    <path class="cls-12" d="M143.22,216.34c-1.64-.18-3.29-.37-4.93-.55,43.71,7.48,87.41,14.96,131.12,22.44-1.41-.24-2.82-.48-4.23-.72"/>
    <path class="cls-12" d="M275.19,180.74c-.46,1-.91,2.01-1.37,3.01"/>
    <path class="cls-12" d="M191.07,224.75c.63.12,1.26.23,1.89.35.03-.36.06-.73.09-1.1,0,0,3.45-21.06,21.87-34.51,3.33-2.43,17.87-12.67,38.37-10.94,2.9.24,28.07,2.68,42.29,25.01,9.6,15.08,8.62,30.46,8.09,35.5"/>
    <path class="cls-12" d="M359.5,254.33c.74-.07,1.47-.14,2.21-.21-42.92,3.87-85.85,7.73-128.77,11.6"/>
    <path class="cls-12" d="M237.43,179.16l-20.54-89.55s30.51-11.08,66-.81l-21.75,90.68"/>
    <line class="cls-12" x1="273.82" y1="183.76" x2="311.77" y2="102.09"/>
    <line class="cls-12" x1="291.85" y1="197.16" x2="348.16" y2="141.24"/>
    <path class="cls-12" d="M137.75,230.03s58.04,9.31,90.9,9.31h32.86s34.5-3.29,64.07,2.19l-2.73-.48"/>
    <line class="cls-12" x1="187.51" y1="102.65" x2="225.3" y2="183.47"/>
    <path class="cls-12" d="M304.48,231.12l57.22-1.1c-3.11.06-6.21.12-9.32.18"/>
    <line class="cls-12" x1="361.71" y1="210.31" x2="302.26" y2="219.43"/>
    <g>
      <path class="cls-12" d="M142.71,263.03c-1.46.13-2.91.27-4.37.4,0,0,61.38-6.53,103.73,4.38,9.7,2.19,19.39,4.38,29.09,6.57"/>
      <path class="cls-12" d="M361.71,272.58c-29.36,7.01-60.64,8.65-90.55,1.8,1.01.15,2.03.38,3.02.64-1.01-.19-2.02-.42-3.02-.64.37.04.73.07,1.1.11"/>
    </g>
    <path class="cls-12" d="M201.81,226.58c.48.13.97.26,1.45.38.02-.29.05-.6.07-.9,0,0,2.85-17.37,18.04-28.47,2.75-2.01,14.74-10.46,31.65-9.03,2.39.2,23.16,2.21,34.89,20.63,7.92,12.44,7.11,25.13,6.67,29.29"/>
    <line class="cls-12" x1="200.99" y1="203.47" x2="141.17" y2="169.33"/>
  </g>
  <text class="cls-9" transform="translate(85.43 408.66)"><tspan class="cls-6" x="0" y="0">Y</tspan><tspan class="cls-17" x="14.66" y="0">O</tspan><tspan class="cls-1" x="34.35" y="0">G</tspan><tspan class="cls-4" x="53.77" y="0">A</tspan><tspan class="cls-17" x="71.83" y="0">, </tspan><tspan class="cls-18" x="83.37" y="0">P</tspan><tspan class="cls-13" x="99.53" y="0">I</tspan><tspan class="cls-15" x="106.52" y="0">L</tspan><tspan class="cls-2" x="121.93" y="0">A</tspan><tspan class="cls-17" x="136.64" y="0">T</tspan><tspan class="cls-5" x="150.96" y="0">E</tspan><tspan class="cls-17" x="166.61" y="0">S, </tspan><tspan class="cls-11" x="193.76" y="0">W</tspan><tspan class="cls-16" x="218.38" y="0">E</tspan><tspan class="cls-7" x="233.88" y="0">LL</tspan><tspan class="cls-13" x="262.5" y="0">N</tspan><tspan class="cls-3" x="282.3" y="0">E</tspan><tspan class="cls-8" x="297.96" y="0">S</tspan><tspan class="cls-14" x="313.69" y="0">S</tspan></text>
</svg>