<?xml version="1.0" encoding="UTF-8"?>
<svg id="Layer_1" data-name="Layer 1" xmlns="http://www.w3.org/2000/svg" viewBox="0 0 500 500">
  <defs>
    <style>
      .cls-1 {
        fill: #fff;
        stroke-width: 0px;
      }
    </style>
  </defs>
  <path class="cls-1" d="M211.43,186.23c-10.89.13-21.78.05-32.66.05-11.03,0-22.05.06-33.08-.04-2.94-.03-4.17.82-4.11,3.98.18,9.46.14,18.92.01,28.38-.04,2.53.8,3.38,3.3,3.29,3.99-.15,8,.14,11.99-.1,3.03-.18,3.99.69,3.95,3.86-.17,15.76.05,31.53-.17,47.29-.06,4.06,1.32,5.19,5.23,5.08,8.68-.24,17.37-.26,26.04.01,3.75.12,4.57-1.11,4.53-4.65-.19-15.9,0-31.81-.16-47.71-.03-3.15.92-4.06,3.96-3.89,3.98.23,7.99-.06,11.99.09,2.54.1,3.33-.84,3.3-3.33-.12-9.46-.15-18.92,0-28.38.05-3.14-1.16-3.98-4.13-3.95Z"/>
  <path class="cls-1" d="M276.88,277.43c2.39.01,3.06-.88,3.04-3.14-.09-9.74-.11-19.48,0-29.21.03-2.63-1.08-3.3-3.47-3.22-3.58.12-7.19-.2-10.75.1-3.35.28-4.11-.97-4.08-4.14.14-15.63-.07-31.27.08-46.9.03-3.33-1.03-4.21-4.25-4.14-9.1.19-18.2.2-27.3,0-3.32-.07-4.26,1.07-4.22,4.29.15,13.58.06,27.16.06,40.73h.01c0,13.99.01,27.98-.02,41.97,0,2.05-.1,3.7,2.89,3.68,15.99-.11,31.99-.09,47.98-.01Z"/>
  <path class="cls-1" d="M442.67,219.82c-1.64-2.39-2.78-3.02-5.32-.69-16.01,14.67-32.14,29.23-48.4,43.63-2.85,2.52-2.36,3.8.22,5.84,11.99,9.47,25.14,11.68,39.06,5.36,13.97-6.34,20.74-17.8,21.33-31.3-.09-9.45-2.51-16.44-6.9-22.84Z"/>
  <path class="cls-1" d="M398.33,244.53c16.05-14.64,32.18-29.21,48.45-43.6,2.88-2.55,2.16-3.84-.32-5.79-11.85-9.35-24.86-11.63-38.7-5.51-14.04,6.21-20.94,17.59-21.73,32.13.16,8.51,2.44,15.68,6.95,22.21,1.74,2.52,2.96,2.75,5.35.57Z"/>
  <path class="cls-1" d="M117.97,190.13c-.55-2.55-1.46-3.33-4.03-3.31-13.64.12-27.28.13-40.92,0-2.61-.03-3.58.9-4.09,3.27-6.01,27.81-12.04,55.61-18.18,83.38-.76,3.46-.38,4.84,3.73,4.76,12.81-.26,25.62-.1,38.44-.1,13.23,0,26.45-.01,39.68.01,2.65,0,4.61-.12,3.78-3.84-6.24-28.04-12.38-56.09-18.4-84.17ZM93.58,248.13c-7,.03-12.97-5.51-13.07-12.12-.11-7.27,5.98-13.58,13.13-13.62,7-.04,12.8,5.66,12.94,12.73.15,7.14-5.7,12.98-13.01,13.01Z"/>
  <path class="cls-1" d="M357.53,189.56c-.62-2.87-1.82-3.63-4.68-3.59-13.24.16-26.48.15-39.71,0-2.93-.03-4.29.64-4.95,3.75-5.93,27.85-12.03,55.66-18.16,83.47-.67,3.03-.09,4.18,3.29,4.14,13.1-.15,26.2-.06,39.3-.06,13.1,0,26.2-.07,39.3.05,3.26.03,4.55-.85,3.79-4.29-6.13-27.81-12.21-55.62-18.18-83.46ZM332.83,248.43c-6.77.05-12.99-5.8-13.06-12.27-.07-7.3,6-13.6,13.13-13.64,6.93-.03,12.89,5.82,12.98,12.76.1,7.06-5.9,13.09-13.06,13.14Z"/>
  <path class="cls-1" d="M313.14,298.47c0-.65-.01-1.3-.02-1.96q0-.88-.86-.93c-.53,0-1.06.04-1.59.01-.42-.02-.55.11-.54.54.05,3.02.08,6.04.11,9.06,0,.14-.01.29-.03.56-.1-.23-.15-.33-.19-.43-1.34-3.12-2.69-6.23-4.03-9.35-.12-.27-.25-.39-.56-.38-.58.03-1.16.02-1.73,0-.34-.01-.44.12-.44.45.01,5.77.02,11.54.02,17.31,0,.33.12.4.42.4.72-.02,1.45-.03,2.17,0,.42.02.51-.15.5-.53-.06-2.24-.11-4.47-.16-6.71-.01-.71,0-1.41,0-2.21.08.15.12.21.15.28,1.16,2.46,2.32,4.93,3.49,7.39.28.59.39,1.4.9,1.69.49.27,1.25.05,1.89.09.42.03.49-.14.49-.52-.02-1.84-.02-3.68-.01-5.51,0-3.08,0-6.17.01-9.25Z"/>
  <path class="cls-1" d="M324.97,304.33c-1.46,0-2.92,0-4.38,0-.28,0-.41.06-.4.37.02.81.02,1.63,0,2.45,0,.31.11.38.4.37.43-.02.87,0,1.3,0,.19,0,.3.03.29.26-.02.53.04,1.06-.08,1.58-.25,1.06-1.38,1.82-2.5,1.42-.81-.29-1.33-1.09-1.33-2.13,0-2.33,0-4.67,0-7,0-.46,0-.93.04-1.39.11-.99.93-1.76,1.83-1.78.98-.02,1.77.66,1.96,1.69.09.46.07.92.06,1.39,0,.23.08.3.31.3.85-.01,1.7-.01,2.55,0,.26,0,.34-.09.33-.34-.01-.38,0-.77-.01-1.15-.11-2.71-2.07-4.77-4.75-5.01-2.46-.22-4.78,1.54-5.37,4.07-.2.87-.09,1.75-.16,2.62,0,.22.03.45.03.67,0,1.98,0,3.96,0,5.94,0,1.3.36,2.48,1.2,3.5,1.13,1.36,2.59,1.97,4.35,1.89.63-.09,1.25-.24,1.83-.52.48-.27.91-.61,1.34-.96.81-.91,1.39-1.94,1.48-3.17.13-1.59.05-3.19.06-4.79,0-.31-.19-.27-.39-.27Z"/>
  <path class="cls-1" d="M351.17,310.54c-1.54.02-3.08.01-4.62,0-.14,0-.32.09-.43-.08,0-.42,0-.83,0-1.25,0-.67,0-1.34,0-2.01,0-.24.01-.48-.02-.72-.05-.39.08-.51.49-.51,1.53.03,3.05,0,4.58.02.33,0,.45-.07.44-.42-.03-.75-.03-1.5,0-2.25.01-.4-.12-.52-.52-.51-1.53.02-3.05,0-4.58.02-.31,0-.41-.07-.41-.39.02-1.12.01-2.24,0-3.36,0-.22.05-.31.29-.31,1.54.01,3.08.02,4.62.02.49.07.61-.17.58-.62-.04-.65,0-1.3,0-1.95,0-.6,0-.6-.63-.61-.59,0-1.18-.01-1.77-.02-1.84,0-3.68.01-5.52.02-.8,0-.71-.1-.72.71,0,.08-.01.16-.02.24,0,1.25,0,2.49,0,3.74,0,2.39.01,4.78.01,7.16,0,.94-.01,1.88-.02,2.82,0,1,0,1.99.02,2.99,0,.16-.08.35.09.49.08,0,.16-.01.24-.01,2.63,0,5.26,0,7.89.02.35,0,.47-.08.46-.45-.03-.78-.03-1.56,0-2.35.01-.34-.1-.43-.43-.42Z"/>
  <path class="cls-1" d="M340.7,307.38c-.83,0-1.67.02-2.5,0-.27,0-.38.07-.36.35.02.35.01.7,0,1.05-.05,1.17-.92,2.07-1.98,2.06-1.06-.01-1.88-.88-1.89-2.07-.02-1.63,0-3.26,0-4.89,0-1.12-.02-2.24,0-3.35.03-1.49,1.23-2.42,2.53-1.97.8.28,1.23.89,1.32,1.72.04.4.04.8.02,1.2-.02.33.11.42.42.4.3-.02.61.01.91.02.5-.01.99-.03,1.49-.02.27,0,.36-.09.35-.36-.02-.73.02-1.47-.1-2.19-.04-.16-.09-.31-.13-.47-.34-.81-.76-1.56-1.41-2.18-.9-.85-1.98-1.25-3.19-1.39-.1,0-.19.01-.29.01-2.74.05-5.01,2.16-5.08,4.87-.08,3-.08,6.01-.01,9.01.06,2.62,2.41,4.8,5.04,4.82,2.7.01,4.88-2.01,5.18-4.8,0-.5,0-1.01.01-1.51,0-.25-.09-.34-.32-.33Z"/>
  <path class="cls-1" d="M363.78,296.16c0-.43-.1-.6-.56-.57-.64.04-1.28.03-1.93,0-.4-.02-.54.11-.53.52.04,1.13.06,2.27.07,3.4.01,2.03,0,4.07,0,6.09-.11-.07-.13-.24-.19-.38-1.33-3.08-2.66-6.15-3.98-9.23-.11-.26-.23-.44-.54-.41-.58,0-1.16.04-1.73.01-.45-.03-.48.2-.48.55.01,4.15.02,8.3.02,12.46,0,1.01-.01,2.01-.02,3.02,0,.57.03,1.15.02,1.72,0,.31.1.42.42.42.85-.02,1.7,0,2.55,0,.18-.15.11-.35.11-.53,0-1.11-.01-2.22-.02-3.33-.14-1.78-.07-3.57-.12-5.36,0-.04.03-.08.05-.12.09.16.19.33.27.5,1.33,2.82,2.67,5.65,3.98,8.48.13.28.28.38.58.37.56-.02,1.12-.02,1.69,0,.29,0,.41-.08.4-.38-.02-.49,0-.99,0-1.49-.01-5.24-.03-10.49-.03-15.73Z"/>
  <path class="cls-1" d="M385.24,311.33c0-.08-.03-.16-.02-.23.09-.48-.14-.58-.58-.56-.6.03-1.21,0-1.81-.01-.13,0-.27,0-.4,0-.8,0-1.6,0-2.4.02-.22,0-.32-.05-.31-.29.02-.67.02-1.34.02-2,0-.06,0-.13,0-.19,0-.16,0-.32,0-.48-.02-.51-.06-1.02.02-1.54.14-.12.31-.06.46-.06,1.52,0,3.05-.01,4.57,0,.34,0,.44-.1.43-.43-.03-.67-.01-1.34-.02-2.01,0-.25.06-.51-.09-.75-1.69,0-3.39,0-5.08.02-.22,0-.31-.06-.3-.29.02-1.22.02-2.45.03-3.67,0-.07.02-.08.08-.07.39,0,.77,0,1.16,0h.48c.67,0,1.35,0,2.02,0,.35,0,.71,0,1.06,0h.29c.25,0,.37-.09.35-.37-.02-.27.01-.54.02-.81-.1-.67.07-1.35-.1-2.01-2.7,0-5.39.01-8.09,0-.39,0-.48.11-.48.48.01,2.36,0,4.73-.01,7.09,0,.38.01.77.01,1.15,0,3.13,0,6.27,0,9.4,2.44,0,4.88.01,7.32.02.42,0,.83,0,1.25.01.06-.08.19-.12.16-.26-.16-.72-.06-1.44-.06-2.16Z"/>
  <path class="cls-1" d="M374.77,295.6c-.17.02-.35,0-.53-.01-.13,0-.26.02-.38.02-2.78,0-5.55,0-8.33,0-.35,0-.48.08-.47.45.02.78,0,1.57-.02,2.35,0,.29.08.39.38.39.87-.02,1.73.02,2.6-.02.43-.02.56.09.56.54-.02,4.65,0,9.3-.02,13.95,0,.39.09.53.5.51.75-.03,1.51-.03,2.26,0,.33.01.44-.08.43-.42-.02-1.1-.01-2.2-.01-3.31,0-2.76,0-5.53,0-8.29,0-.88,0-1.76-.02-2.63,0-.29.11-.34.37-.33.9.01,1.8-.01,2.7.01.37,0,.51-.08.49-.47-.03-.73-.03-1.47,0-2.2.02-.4-.11-.55-.51-.5Z"/>
  <path class="cls-1" d="M295.5,301.16c0-.26,0-.51,0-.77,0-1.45-.02-2.9-.02-4.34,0-.33-.09-.46-.44-.45-.62.02-1.25,0-1.87-.01-.1,0-.19,0-.29,0-.36-.02-.4.19-.4.49.02,1.63.02,3.26.02,4.89.1,1.12.07,2.24.07,3.36v1.48c-.58-1.35-1.11-2.56-1.63-3.78-.84-1.96-1.7-3.92-2.52-5.89-.16-.39-.34-.61-.8-.54-.23.04-.48,0-.72,0-.25,0-.51.04-.75.02-.42-.04-.58.12-.53.53.02.17-.01.34-.02.51.05.99.04,1.98,0,2.97.01,1.08.03,2.17.03,3.25,0,3.17,0,6.35,0,9.52,0,.25,0,.51,0,.76.08.23-.14.62.37.6.88-.03,1.76-.02,2.64-.03.13-.19.09-.4.08-.6-.06-2.62-.12-5.23-.17-7.85,0-.29,0-.58,0-.87.03,0,.07,0,.1-.01l1.04,2.34s.04.05.05.08c.95,1.99,1.9,3.97,2.85,5.96.17.35.25.75.59,1,.61,0,1.22,0,1.84,0,.39.04.49-.12.49-.52-.02-1.89,0-3.77,0-5.66,0-2.14,0-4.29,0-6.43Z"/>
  <path class="cls-1" d="M300.97,302.22c0-2.05,0-4.09-.01-6.14,0-.23.07-.49-.33-.48-.83.02-1.67.01-2.51,0-.27,0-.32.1-.32.34.01.62,0,1.25,0,1.87,0,2.4-.02,4.79-.03,7.19,0,.16,0,.32,0,.48,0,.37,0,.75,0,1.12,0,2.12-.01,4.24-.02,6.36,0,.12.04.25.02.37-.06.34.11.44.41.43.93-.02,1.86-.04,2.78-.05,0-.12.01-.24.02-.37,0-.16-.02-.32-.02-.48,0-3.55,0-7.1-.01-10.65Z"/>
  <path class="cls-1" d="M283.38,299.09c-.67-1.96-2.15-3.06-4.19-3.44-.54-.02-1.08-.04-1.63-.07-1.35,0-2.69.03-4.04,0-.39,0-.49.12-.49.49,0,1.72-.01,3.45-.02,5.17,0,2.53,0,5.05-.01,7.58,0,.89,0,1.79,0,2.69,0,.54,0,1.09,0,1.63.01.19.02.38.04.57.13.01.26.03.39.04.61-.04,1.22-.04,1.83,0,.19,0,.39,0,.58,0,.06,0,.13,0,.19,0,.26-.09.17-.31.17-.49.01-.94.02-1.87.03-2.81,0-.06,0-.13,0-.19v-.57c0-.78-.01-1.56-.01-2.35,0-.44-.14-1.04.08-1.29.26-.3.87-.07,1.33-.1,1.57-.11,2.67,1.1,2.63,2.6-.04,1.6,0,3.19-.02,4.79,0,.31.09.41.41.4.8-.02,1.6-.02,2.41,0,.33,0,.43-.12.41-.41,0-.7,0-1.4,0-2.11-.03-1.15-.03-2.3-.08-3.44-.04-1.09-.46-2.05-1.14-2.89-.17-.21-.2-.32,0-.54,1.41-1.53,1.8-3.33,1.14-5.27ZM280.25,301.73c-.34.66-.9,1.03-1.64,1.07-.69.03-1.38,0-2.07.02-.25,0-.33-.08-.33-.33.01-1.14.01-2.27,0-3.41,0-.29.11-.34.36-.34.66.02,1.32-.01,1.98.01.7.03,1.26.33,1.62.94.46.66.46,1.33.08,2.02Z"/>
  <path class="cls-1" d="M397,304.15c.65-.86,1.09-1.81,1.19-2.9,0-.35-.01-.7-.02-1.05-.28-2.15-1.53-3.52-3.49-4.33-.6-.16-1.21-.26-1.83-.28-1.59,0-3.17.03-4.76,0-.43,0-.54.12-.53.54.02.88,0,1.75-.02,2.63,0,.19.02.38.02.57,0,4.63-.01,9.26-.02,13.89,0,.18-.09.39.1.53.96,0,1.92,0,2.88,0,.06-.02.12-.03.18-.05,0-2.43.02-4.85.01-7.28,0-.35.06-.53.46-.48.32.04.64,0,.96,0,1.69,0,2.62.93,2.62,2.6,0,1.6,0,3.19,0,4.79,0,.32.09.41.4.4.8-.02,1.6-.02,2.41,0,.33,0,.4-.12.39-.42-.02-.64,0-1.28,0-1.91,0-.48,0-.96,0-1.44-.07-.87.03-1.75-.1-2.61-.12-.75-.42-1.42-.78-2.08-.06-.07-.11-.15-.18-.21-.43-.36-.32-.66.09-.94ZM393.15,302.81c-.7.03-1.41,0-2.12.02-.23,0-.31-.07-.3-.3.01-.59,0-1.18,0-1.77,0-.56.01-1.12,0-1.68,0-.25.06-.33.32-.33.67.02,1.35,0,2.02.01,1.08.03,1.97.94,1.98,2.01.01,1.04-.85,1.98-1.91,2.03Z"/>
  <path class="cls-1" d="M259.52,311.02c.04-.37-.11-.51-.46-.48-.16,0-.32,0-.48,0-.1,0-.19,0-.29,0-1.38,0-2.77,0-4.15,0-.06.01-.1,0-.09-.07-.03-1.49-.09-2.98.03-4.47,1.43-.06,2.87-.05,4.3,0,.19,0,.38,0,.57,0,.47.03.61-.18.58-.65-.05-.7-.05-1.41-.04-2.11,0-.33-.09-.46-.43-.44-.48.02-.96,0-1.44-.02-.45.03-.9.05-1.35,0-.16.03-.32.04-.48,0-.25.04-.51.05-.76,0q-1,.1-1-.89c0-.48.02-.95.02-1.43,0-.47,0-.93-.02-1.4,0-.16.06-.26.22-.3.06,0,.13,0,.19,0,.26,0,.51,0,.77,0,1.28,0,2.57-.02,3.85,0,.34,0,.44-.09.43-.43-.02-.77-.03-1.54,0-2.3.01-.38-.13-.46-.48-.44-.43.02-.87,0-1.3-.01-.74,0-1.48,0-2.22,0-.42,0-.84,0-1.26,0-.22,0-.45,0-.67,0-.35,0-.7,0-1.05,0-.16,0-.32,0-.48,0-.03,0-.06.02-.09.02q-1.07.04-1.07,1.12c0,3.43-.02,6.86-.02,10.29,0,1.8,0,3.61.01,5.41,0,.43-.19.98.08,1.24.27.26.82.07,1.25.07,2.39.01,4.78.02,7.17.03.06-.02.12-.04.17-.06,0-.5,0-1.01.01-1.51v-.48c-.01-.23-.05-.47-.02-.7Z"/>
  <path class="cls-1" d="M243.93,310.56c-.22,0-.31-.05-.31-.29.01-4.83.02-9.65.03-14.48-.15-.35-.47-.09-.68-.2-.66,0-1.32.05-1.97,0-.47-.03-.55.14-.55.57.02,1.88,0,3.77,0,5.65,0,3.62-.02,7.24-.03,10.86,0,.03.01.06.02.09.03.31-.13.69.06.91.2.23.6.01.9.1.14,0,.29-.02.43-.02,2.29,0,4.58-.01,6.87,0,.33,0,.44-.08.43-.42-.02-.89,0-1.78,0-2.68-.04-.04-.07-.07-.11-.11-1.7,0-3.4,0-5.11.01Z"/>
  <path class="cls-1" d="M270.91,310.85c-.15-.43-.18-.89-.25-1.33-.03-.17-.06-.35-.09-.52-.06-.31-.16-.61-.15-.93-.21-.92-.38-1.85-.48-2.78-.22-1.2-.45-2.41-.67-3.61-.33-1.9-.66-3.8-.98-5.7-.04-.27-.14-.38-.43-.38-1.11.02-2.21.01-3.32,0-.25,0-.37.06-.41.33-.09.59-.23,1.18-.35,1.77-.04.25-.08.51-.12.76-.05.26-.1.52-.15.78-.27,1.77-.6,3.52-.95,5.28-.13.9-.28,1.8-.5,2.69.01.03,0,.06-.02.09.02.23-.04.45-.11.67-.22,1.42-.46,2.83-.77,4.23,0,.06,0,.12-.01.18.02.08,0,.16-.06.22.03.38-.2.75-.1,1.14.87,0,1.74-.02,2.6.02.41.02.53-.15.56-.5.04-.43.14-.85.18-1.28.02-.21.11-.26.3-.26,1,0,1.99.01,2.99,0,.22,0,.31.06.34.28.06.47.16.94.22,1.42.03.27.14.34.4.34.82-.01,1.64-.01,2.46,0,.29,0,.32-.08.29-.36-.12-.85-.37-1.68-.41-2.54ZM266.82,308.93c-.51,0-1.03-.02-1.54,0-.3.01-.39-.07-.34-.37.37-2.25.74-4.5,1.1-6.75.03-.18.06-.37.08-.55.05,0,.09,0,.14,0,.13.84.27,1.68.39,2.52.23,1.51.44,3.03.67,4.54.09.6.09.6-.5.6Z"/>
</svg>