<?xml version="1.0" encoding="UTF-8"?>
<svg id="Layer_1" data-name="Layer 1" xmlns="http://www.w3.org/2000/svg" viewBox="0 0 500 500">
  <defs>
    <style>
      .cls-1 {
        fill: #fff;
        stroke-width: 0px;
      }
    </style>
  </defs>
  <path class="cls-1" d="M250.17,258.84c5.52-2.81,11.05-5.62,16.57-8.42,1.37-1.57,3.36-2.15,5.11-3.05,16.49-8.5,33.11-16.75,49.67-25.11.88-.44,1.74-1.06,2.83-.6.53.77.31,1.65.31,2.47.02,17.58,0,35.15.05,52.73,0,1.62-.53,2.45-1.97,3.18-22.98,11.54-45.93,23.14-68.9,34.71-1.02.51-1.93,1.28-3.12,1.43-1.13-.86-1.14-2.11-1.17-3.35-.3-10.1-.08-20.21-.13-30.31-.03-6.71-.02-13.42,0-20.13,0-1.22-.16-2.49.75-3.53Z"/>
  <path class="cls-1" d="M250.17,258.84c.02,16.77.01,33.54.08,50.31,0,2.34-.16,4.72.47,7.02-.94.51-1.66-.21-2.34-.56-21.16-10.69-42.31-21.43-63.46-32.15-2.47-1.25-4.93-2.52-7.44-3.7-1.03-.48-1.46-1.08-1.45-2.27.04-18.05.04-36.1,0-54.14,0-1.8.55-1.67,1.85-1.01,23.02,11.62,46.06,23.2,69.1,34.8,1.08.54,2.13,1.13,3.19,1.7Z"/>
  <path class="cls-1" d="M250.27,166.72c-5.27,3.03-10.77,5.61-16.23,8.27-1.98,1.24-3.59-.08-5.15-.89-5-2.59-10.04-5.08-15.06-7.63-10.72-5.43-21.54-10.68-32.15-16.34-1.23-.66-2.58-1.05-3.78-1.74-.72-.42-1.8-.72-1.33-1.98,18.12-9.15,36.24-18.31,54.36-27.46,5.56-2.81,11.12-5.62,16.69-8.41.68-.34,1.41-.57,2.11-.85,1.65.37,1.6,1.74,1.6,2.94-.09,15.33.22,30.67.07,46-.02,1.85-.36,3.68-.25,5.54.05.92-.15,1.85-.88,2.55Z"/>
  <path class="cls-1" d="M324.35,221.65c-6.14,3.03-12.29,6.03-18.4,9.09-4.93,2.47-9.81,5.01-14.72,7.51-7.44,3.79-14.89,7.57-22.35,11.33-.68.34-1.42.55-2.13.83-1.46-1.69-3.64-2.16-5.48-3.2-3.66-2.06-7.68-3.45-11.1-5.97-.8-.98-.75-2.15-.75-3.3-.01-16.79-.03-33.58.03-50.37,0-1.18-.47-2.69,1.22-3.32,12.13,6.06,24.27,12.11,36.39,18.2,11.76,5.91,23.5,11.88,35.24,17.83.74.37,1.62.56,2.07,1.37Z"/>
  <path class="cls-1" d="M250.27,166.72c.67-13.58.32-27.18.33-40.77,0-4.36-.71-8.72,0-13.09.18-1.11.07-2.29-.86-3.17.78-.66,1.45-.11,2.12.23,16.77,8.48,33.54,16.96,50.32,25.43,7.36,3.71,14.74,7.37,22.25,11.12-1.12,1.37-2.66,1.73-3.99,2.39-17.12,8.64-34.26,17.23-51.36,25.89-1.09.55-1.83.59-2.94.01-5.25-2.75-10.58-5.38-15.87-8.04Z"/>
  <path class="cls-1" d="M176.58,146.41c.12.94.97,1.2,1.6,1.5,10.96,5.29,21.7,10.99,32.59,16.42,6.72,3.35,13.38,6.82,20.15,10.07,1.02.49,2.04.64,3.12.6.95,2.15,3.29,2.24,4.98,3.24,3.28,1.92,6.8,3.46,10.21,5.15,1.62,1.12.36,1.65-.5,2.06-3.07,1.46-5.99,3.19-9.03,4.7-14.37,7.14-28.65,14.45-43.04,21.55-1.24.61-2.45,1.37-3.94.9-5.02-2.51-10.02-5.04-15.05-7.52-1.07-.53-1.61-1.17-1.61-2.46.04-18.25.03-36.51.04-54.76,0-.51-.15-1.11.47-1.43Z"/>
  <path class="cls-1" d="M192.72,212.59c.87-.02,1.62-.4,2.39-.78,15.6-7.83,31.21-15.65,46.81-23.49,2.27-1.14,4.48-2.41,6.77-3.49.82-.39,1.19-.64.55-1.45.71-.1,1.13.27,1.42.87-.76.78-.41,1.76-.41,2.65-.04,18.12-.06,36.23-.08,54.35-5.87-2.29-11.29-5.49-16.92-8.28-11.84-5.88-23.64-11.82-35.45-17.75-1.7-.85-3.38-1.75-5.07-2.63Z"/>
  <path class="cls-1" d="M262.82,379.37c0-2.85-.05-5.71.02-8.56.03-1.3-.19-1.95-1.73-1.9-3.93.13-7.87-.02-11.8.12-3.14.12-5.94,1.19-7.43,4.24-2.54,5.18.46,10.07,6.47,10.67,4.14.41,4.06.41,4.09,4.59,0,1.64-.52,2.15-2.12,2.06-3.88-.2-7.74-.43-11.07-2.73-4.72-3.25-5.78-8.06-5.06-13.29.75-5.46,4.13-8.99,9.3-10.76,2.12-.73,4.32-1.12,6.59-1.08,3.09.05,6.17.01,9.26,0q3.72,0,3.42-3.8c-.3-3.83-2.36-6.45-6.06-7.19-5.93-1.18-11.56-.78-16,4.04-.79.86-1.37.84-2.3.1-4.32-3.48-4.41-3.68.04-6.99,6.77-5.05,14.31-5.14,22.04-2.92,1.37.39,2.08.21,2.96-.75,1.77-1.93,3.67-3.74,5.45-5.66.8-.87,1.28-.86,2.17,0,3.99,3.79,4.02,3.75.12,7.6-.27.27-.48.63-.78.85-2.14,1.55-3.12,3.11-1.38,5.82,1.24,1.93.96,4.49.97,6.79.05,9.1-.02,18.21.07,27.31.02,1.81-.61,2.18-2.27,2.16-4.96-.04-4.96.03-4.96-4.94,0-1.93,0-3.86,0-5.79Z"/>
  <path class="cls-1" d="M214.26,384.38c-2.8,2.22-5.33,4.35-8.56,5.37-7.23,2.29-13.87-.15-16.77-6.26-.91-1.92-1.14-3.98-1.13-6.09.03-7.33.03-14.66.06-21.99,0-1.83-.18-3.45-2.47-3.73-.21-.03-.48-.12-.58-.27-.55-.81,1.05-5.37,1.98-5.69,4.11-1.41,8.41,1.27,8.82,5.6.7,7.47-.21,14.95.05,22.42.02.69.06,1.39,0,2.08-.58,6.05,3.95,9.35,10.26,7.09,3.13-1.12,5.5-3.33,7.84-5.58.77-.74.62-1.7.62-2.61,0-8.79.05-17.59-.04-26.38-.02-1.77.41-2.38,2.29-2.36,5.6.09,5.59,0,5.59,5.5,0,9.49,0,18.98,0,28.47,0,1.99-.05,3.99,2.63,4.36.14.02.31.09.4.2.78.95-.98,5.56-2.23,5.86-4.24,1.02-7.7-1.24-8.77-6Z"/>
  <path class="cls-1" d="M386.21,384.48c-2.69,2.22-5.26,4.31-8.51,5.3-6.32,1.93-11.98.4-15.41-4.21-1.67-2.24-2.37-4.81-2.36-7.58.03-7.4.05-14.81.08-22.21,0-1.93-.02-3.83-2.63-4.07-.15-.01-.33-.06-.42-.16-.58-.63,1.13-5.54,2.01-5.82,4-1.28,7.98,1.09,8.72,5.22.38,2.14.17,4.3.16,6.46-.03,6.56-.03,13.11-.04,19.67,0,4.2,3,6.96,7.16,6.54,4.69-.48,8.04-3.29,11.09-6.55.65-.7.38-1.62.38-2.44.02-8.79.06-17.59-.03-26.38-.02-1.73.45-2.23,2.2-2.22,5.71.05,5.71-.02,5.71,5.57,0,9.41,0,18.82,0,28.23,0,2.07-.08,4.16,2.73,4.53.14.02.3.09.38.19.81,1.02-1.18,5.64-2.54,5.89-4.17.79-6.87-1.01-8.68-5.95Z"/>
  <path class="cls-1" d="M139.95,362.54c0,4.01-.17,8.04.04,12.04.49,9.49-6.15,14.12-12.43,15.38-6.23,1.25-12.14.48-17.27-3.68-3.29-2.66-4.72-6.19-4.71-10.36.02-6.64.05-13.27.08-19.91.01-2,.04-3.99-2.65-4.33-.14-.02-.32-.08-.41-.19-.88-1.1,1.1-5.62,2.57-5.9,4.63-.89,8.2,1.93,8.3,6.87.13,6.56,0,13.12-.02,19.68,0,1.23-.1,2.47-.01,3.7.31,4.31,2.73,7.3,6.56,8.21,4.73,1.12,8.57-.28,10.9-3.97.95-1.5,1.14-3.16,1.14-4.88,0-8.95.05-17.91-.05-26.86-.02-1.81.46-2.35,2.3-2.33,5.65.07,5.65,0,5.65,5.66,0,3.63,0,7.26,0,10.88Z"/>
  <path class="cls-1" d="M331.99,390.26c-5.53-.01-10.4-1.29-15.04-3.56-1.02-.5-1.59-.92-1.02-2.23.73-1.68.66-4.18,1.87-5.06,1.43-1.05,3.15,1.15,4.86,1.67,4.09,1.22,8.15,2.39,12.48,1.41,3.13-.71,4.86-2.16,5.12-4.6.28-2.63-1.17-4.27-3.37-5.52-2.58-1.46-5.42-2.18-8.16-3.17-1.52-.55-3.02-1.12-4.48-1.83-5.23-2.57-7.49-6.28-6.94-11.6.51-5.02,4.12-9,9.39-10.15,6.79-1.48,13.14.16,19.29,3,.89.41.99.92.79,1.83-1.1,4.99-1.05,4.93-5.9,3.16-3.12-1.14-6.33-2.09-9.71-1.75-2.28.23-4.44.81-5.45,3.23-.87,2.1-.41,3.55,1.56,4.68,2.43,1.39,5.12,2.09,7.75,2.97,2.86.96,5.63,2.08,8.07,3.93,4.4,3.35,5.84,7.8,4.93,13.09-.92,5.4-4.74,8.07-9.54,9.63-2.21.72-4.52.98-6.52.9Z"/>
  <path class="cls-1" d="M176.07,373.46c0,4.78-.04,9.56.03,14.34.02,1.45-.33,2.02-1.92,2.03-5.42.01-5.42.08-5.42-5.41,0-7.55,0-15.11,0-22.66,0-.62.02-1.23,0-1.85-.11-3.03-.52-5.93-3.84-7.23-3.28-1.29-7.78-.35-9.94,2.37-1.03,1.29-1.7,1.19-2.78.35-.48-.38-1.05-.64-1.59-.94-2.84-1.61-2.85-1.67-.69-4.02,4.79-5.22,13.96-6.66,20.01-3.07,4.27,2.54,5.87,6.63,6.03,11.31.16,4.93.04,9.86.04,14.8.03,0,.05,0,.08,0Z"/>
  <path class="cls-1" d="M306.41,373.1c0,4.93-.04,9.87.02,14.8.02,1.37-.37,1.86-1.81,1.9-5.36.16-5.36.22-5.36-5.22,0-7.63,0-15.26,0-22.9,0-.54.04-1.08-.01-1.62-.28-3.03-.48-6.1-3.97-7.41-3.39-1.27-7.55-.36-9.91,2.4-.89,1.04-1.55,1.33-2.61.41-.34-.3-.79-.48-1.19-.71-3.52-1.99-3.53-2.08-.7-4.92,4.73-4.75,13.82-5.9,19.56-2.44,3.91,2.36,5.67,6.06,5.83,10.44.19,5.08.04,10.17.04,15.26h.1Z"/>
  <path class="cls-1" d="M137.86,340.26c-3.63,0-7.25-.06-10.88.03-1.54.04-2.13-.47-1.92-1.99.08-.61.09-1.24,0-1.85-.28-1.8.49-2.51,2.26-2.48,1.08.02,2.19-.14,2.94-1.07,1.2-1.47.54-3.54-1.51-3.89-1.73-.3-2.03-1.01-2-2.57.08-4.05.18-4.19,4.17-3.28,5.18,1.18,7.24,4.07,6.36,9.14-.23,1.33.14,1.59,1.35,1.57,3.39-.05,6.79.06,10.18-.05,1.64-.05,2.33.27,2.29,2.12-.08,4.3.02,4.31-4.22,4.31-3.01,0-6.02,0-9.03,0Z"/>
  <path class="cls-1" d="M334.27,330.46c4.86-.18,9.97.49,15.09,1.31,1.7.27,2.29.88,2.15,2.68-.32,4.12-.23,4.19-4.27,3.67-10-1.27-19.98-1.57-29.94.25-1.39.25-1.8-.15-1.79-1.46.02-5.36-1.47-4.47,4.62-5.47,4.59-.75,9.19-1.08,14.16-.98Z"/>
</svg>