<?xml version="1.0" encoding="UTF-8"?>
<svg id="Layer_1" data-name="Layer 1" xmlns="http://www.w3.org/2000/svg" viewBox="0 0 500 500">
  <defs>
    <style>
      .cls-1 {
        fill: #fff;
        stroke-width: 0px;
      }
    </style>
  </defs>
  <path class="cls-1" d="M156.02,231.09c.41-2.26-1.32-1.9-2.65-1.9-4.62-.01-9.25-.12-13.87.03-2.78.09-4.28-.19-3.01-3.6,1.03-2.78,1.37-5.82,2.09-8.73,2.04-8.23,3.85-16.58,9.1-23.55,2.54-3.38,5.81-5.3,10.29-4.46,4.28.8,8.58,1.46,12.88,2.14,3.26.51,5.77-.7,6.78-3.87,1.11-3.47-1.2-5.4-3.95-6.69-2.81-1.32-5.9-1.18-8.84-.64-14.1,2.6-24.57,10.26-31.45,22.87-3.98,7.29-6.26,15.19-8.24,23.16-.69,2.79-1.98,3.51-4.63,3.39-4.36-.2-8.74-.02-13.12-.08-2.98-.04-2.47,2.49-2.77,4.05-.4,2.09,1.55,1.33,2.54,1.35,4.12.09,8.25.19,12.37-.02,2.7-.14,3.57.48,2.74,3.27-1.32,4.42-2.29,8.94-3.49,13.4-5.08,18.89-8.81,38.13-14.76,56.79-3.2,10.03-7.89,12.84-18.54,11.88-4.58-.42-9.18-.73-13.78-.76-2.26-.01-4.41.87-5.08,3.57-.68,2.7.45,4.64,2.55,6.09.89.61,2.01,1.01,3.08,1.23,8.59,1.76,16.28-.84,23.5-5.16,12.21-7.3,19.24-18.65,23.53-31.73,5.18-15.77,8.15-32.14,12.42-48.16.89-3.34.44-7.77,3.01-9.74,2.57-1.97,6.76-.34,9.61-.61,3.36,0,6.11-.1,8.86.03,2.7.12,2.53-1.94,2.82-3.54Z"/>
  <path class="cls-1" d="M250.17,275.33c-2.48,2.07-4.82,4.34-7.42,6.24-1.06.77-2.54,2.09-4.05.81-1.14-.96-.93-2.34-.72-3.79.81-5.71,2.33-11.24,3.86-16.77,2.92-10.56,6.01-21.07,8.93-31.62,1.27-4.58-.43-6.61-5.23-6.45-1.22.04-2.47.31-3.65.65-7.69,2.25-13.5,7.29-18.89,12.91-.83.86-2.54,1.53-.74,3.2,1.41,1.3,2.45,1.33,3.78-.06,2.07-2.15,4.16-4.27,6.67-5.96,1.5-1.01,3.11-2.29,4.71-1.1,1.46,1.08.67,3.02.22,4.55-1.93,6.56-4.07,13.07-5.85,19.67-2.4,8.89-5.07,17.75-5.68,25.85-.05,7.03,2.95,9.33,8.61,7.83,2.2-.58,4.19-1.61,6.07-2.85,4.49-2.95,8.44-6.58,12.42-10.15.92-.82,2.57-1.65,1.17-3.32-1.51-1.79-2.9-.71-4.18.36Z"/>
  <path class="cls-1" d="M261.7,191.6c-1.66-4.69-6.66-6.44-10.85-3.82-3.84,2.41-5.31,6.04-5.41,8.85.04,7.51,3.93,11.4,8.52,10.02,5.8-1.74,9.74-9.4,7.74-15.06Z"/>
  <path class="cls-1" d="M334.45,189.55c4.07.52,8.14,1.05,12.23,1.24,4.11.2,6.32-1.72,6.47-5.09.14-3.04-1.97-5.2-5.64-5.7-.97-.13-1.91-.22-2.94-.11-13.1,1.34-22.96,7.77-29.8,18.88-4.31,7-6.12,14.97-8.3,22.77-.44,1.56-.61,3.28-3.02,2.87-6.61-1.13-12.31,1.33-17.55,4.93-13.99,9.6-21.41,23.62-25.97,39.43-1.39,4.82-1.69,9.76-.56,14.76,1.47,6.52,6.29,9.68,12.76,8.04,3.53-.9,6.82-2.36,9.79-4.53,4.02-2.93,7.7-6.25,11.62-10.07,1.02,3.24-.07,5.73-.83,8.13-1.82,5.74.28,7.72,6.56,6.52.97-.19,1.89-.64,2.82-1,7.36-2.83,13.06-8.15,19.2-12.82.82-.62,1.51-1.32.5-2.45-.98-1.11-1.7-1.38-3.08-.35-2.98,2.25-6.13,4.27-9.26,6.3-1.13.73-2.4,1.54-3.76.37-1.18-1.01-1.32-2.37-1.08-3.78.45-2.57.89-5.15,1.48-7.69,4.16-17.87,8.23-35.75,12.61-53.57,1.78-7.24,2.86-14.69,5.98-21.57,2.05-4.51,4.93-6.13,9.76-5.51ZM303.61,235.57c-2.3,9.67-4.17,19.47-7.35,28.9-2.18,6.45-6.64,11.35-12.47,14.86-2.78,1.68-5.83,3.23-9.12,1.36-3.58-2.04-4.27-5.58-4.31-10.28,1.25-11.42,5.02-22.88,12.53-32.87,4.06-5.4,12.97-7.39,19.41-4.94,1.69.64,1.6,1.79,1.31,2.98Z"/>
  <path class="cls-1" d="M212.13,274.45c-2.47,2.72-5.62,4.54-8.7,6.44-1.29.79-2.85,1.61-4.18.56-1.13-.9-.79-2.46-.6-3.86,1.23-8.92,3.21-17.68,5.54-26.36,2.61-9.7,5.48-19.34,8.32-29.31-2.16.28-4.35,0-5.33,1.79-1.08,1.98-2.56,2-4.36,1.98-5.12-.06-10.25-.3-15.2,1.5-8.59,3.12-15.32,8.67-20.89,15.77-7.91,10.09-13.84,21.02-14.1,34.25-.11,5.29.55,10.64,5.56,13.46,5.19,2.92,10.19.41,14.78-2.38,5.66-3.44,10.73-7.63,15.96-12.22-.98,3.33-2.01,6.64-2.91,9.98-1.15,4.25.57,6.29,4.88,5.8,1.35-.15,2.69-.54,4.01-.94,8.2-2.47,13.97-8.46,20.14-13.89,1.19-1.05.78-1.83-.11-2.78-1.09-1.18-1.94-.74-2.8.21ZM197.57,236.66c-2.85,9.4-4.52,19.15-8.11,28.32-2.9,7.41-7.62,13.43-15.48,16.07-5.77,1.94-9.41-.83-9.76-6.99-.06-1.12,0-2.24,0-3.37.73-12.02,4.17-22.97,12.78-31.78,5.3-5.43,12.03-5.86,19.04-4.85,1.56.22,2.03.98,1.53,2.6Z"/>
  <path class="cls-1" d="M403.57,261.36c4.15-2.02,8.32-4,12.46-6.04,5.09-2.5,9.75-5.68,13.41-10.02,3.88-4.61,6.18-9.91,3.37-15.87-2.05-4.34-6.16-5.5-10.49-5.32-6.83-.12-12.65,2.26-17.2,6.73-13.51,13.28-20.8,29.25-19.74,48.54.51,9.37,5.72,13.59,14.89,11.78,11.25-2.22,19.65-9.3,27.85-16.67,1.29-1.16.44-1.92-.28-2.81-.8-1-1.45-1.35-2.75-.43-4.66,3.3-9.11,6.97-14.49,9.1-8.59,3.41-12.17,1.3-13.16-7.67-.69-6.32.55-8.62,6.13-11.34ZM406.99,236.4c1.1-1.71,2.44-3.22,4.11-4.29,2.71-1.73,5.7-2.92,8.7-.68,3.1,2.32,3.6,5.58,2.44,9.06-1.17,3.51-3.48,6.17-6.4,8.5-4.92,3.91-10.17,7.15-16.72,9.83,1.88-8.33,3.61-15.8,7.87-22.42Z"/>
  <path class="cls-1" d="M368.82,224.09c-8.17-.36-15.14,2.69-20.41,8.46-10.89,11.92-17.52,25.89-17.94,41.51.14,3,.04,5.14.36,7.22,1.21,7.86,6.27,11.42,14.06,10.06,11.61-2.04,20.03-9.54,28.63-16.73,1.28-1.07.53-1.93-.2-2.84-.72-.9-1.23-1.84-2.62-.63-1.58,1.39-3.39,2.54-5.16,3.7-4.06,2.66-8.06,5.49-12.91,6.61-5.79,1.34-9.02-.82-9.55-6.7-.24-2.71.17-5.47.17-8.2,0-2.19,1.09-3.23,3.04-4.12,7.02-3.21,14.2-6.16,20.67-10.43,5.48-3.63,10.35-7.81,11.91-14.71,1.68-7.41-2.53-12.87-10.07-13.2ZM367.83,239.74c-.48,2.24-1.69,4.12-3.2,5.82-5.34,6.01-12.18,9.73-20.14,13.34,2.31-10.07,3.78-19.71,11.68-26.54,2.61-2.26,5.85-3.15,8.96-.96,2.85,2,3.4,5.07,2.7,8.34Z"/>
</svg>