<?xml version="1.0" encoding="UTF-8"?>
<svg id="Layer_1" data-name="Layer 1" xmlns="http://www.w3.org/2000/svg" viewBox="0 0 500 500">
  <defs>
    <style>
      .cls-1 {
        fill: #fff;
        stroke-width: 0px;
      }
    </style>
  </defs>
  <path class="cls-1" d="M254.61,309.83c6.95-.88,13.91-1.75,20.86-2.63-.02-.18-.04-.36-.06-.54-7.21.78-14.41,1.56-21.62,2.34-.06-.5-.12-1-.17-1.49,6.33-.62,12.66-1.24,19-1.86l-.1-1.03c-6.09.53-12.18,1.07-18.69,1.64.19-1.79.33-3.11.47-4.43,5.19-.35,10.03-.67,14.88-.99,0-.21-.01-.41-.02-.62-2.42,0-4.85,0-7.27,0s-4.72,0-7.08,0c-.02-.26-.04-.53-.06-.79,1.11-.42,2.22-.85,4.22-1.62h-24.04c1.38.73,4.53,1.36,5.42,3.13,1.08,2.16.26,5.27.26,7.97-.39.06-.78.13-1.17.19-.66-2.42-1.32-4.83-2.18-7.96v7.13c-5.11.85-3.87-4.78-7.01-6.23.91,2.48,1.72,4.66,2.59,7.03-6.41-1.52-7.7-2.7-6.64-5.21-1.81-1.31-3.54-2.56-5.26-3.81.16-.28.31-.56.47-.84h6.02c-7.09-1.28-13.76-2.48-20.43-3.69l-.17.27c2.15.8,4.29,1.6,7.19,2.68-7.39,1.69-15.76-1.57-21.26-8.92-8.26-11.03-10.78-23.3-10.49-36.83.3-14.1,7.59-24.81,14.75-35.94,7.52-11.7,14.83-23.53,17.26-37.77.83-4.84,4.11-9.31,6.55-13.79.64-1.17,2.35-1.74,3.57-2.59-.3,1.09-.27,2.47-.95,3.2-3.02,3.25-2.09,7.51-3.39,11.64,2.95,1.31,5.88,2.62,8.8,3.92.18-.34.36-.69.54-1.03-1.51-.74-3.03-1.48-4.54-2.22-.56-4.51,6.09-8.3.7-13.69,3.13,1.57,5.61,2.82,8.1,4.06.18-.33.36-.66.54-.99-2.26-1.45-4.52-2.91-6.82-4.38q1.02-.93,7.29,1.88c-.27-.83-.41-1.36-.62-1.86-.2-.46-.47-.89-1.26-2.34,4.08-.73,7.85-2.21,11.41-1.8,3.47.4,6.72,2.72,10.51,4.39-.68-1.24-1.29-2.36-2.11-3.86,1.43-.85,2.88-1.71,4.33-2.57-.07-.23-.14-.46-.21-.69-1.48.34-2.96.69-4.71,1.1-.07-.93-.14-1.99-.22-3.09,7.81-2.57,14.07.98,19.63,5.07,11.06,8.12,17.27,19.64,18.87,33.06,1.17,9.81,5.05,18.09,9.66,26.58,4.38,8.06,8.83,16.73,10.26,25.61,4.69,29.17-7.58,56.97-40.67,64.82-4.77,1.13-9.94.58-14.93.81,0-.14,0-.28,0-.42ZM199.03,228.16c-.14.3-.29.6-.43.9-.32,3.07-1.94,4.01-3.79,3.09.5,1.19,1.24,2.84,1.8,4.56.04.12-1.37.7-2.33,1.18,1.25,1.45,2.57,2.99,3.5,4.07-.59-.06-1.98-.19-3.38-.33,1.68,1.27,3.49,1.84,5.33,2.31,3.47.89,4.88,3.22,4.11,6.61-.29,1.28-.21,2.65-.29,3.98.38.02.75.05,1.13.07.22-4.6.44-9.21.68-14.11,1.03.5,1.82.88,2.63,1.28-.92-1.86-1.72-3.5-2.53-5.14.05-1.41.1-2.83.14-4.24,2.61-.26,1.27-1.81.64-2.59-2.65-3.27-6.26-4.82-10.09-5.72,1.03,1.45,1.95,2.75,2.88,4.06ZM216.19,203.61c-.79,1.06-1.57,2.12-2.36,3.18-1.9-.18-3.79-.35-5.81-.54.63.55,1.27,1.1,1.96,1.7-.71.44-1.1.68-1.49.92.05.38.11.76.16,1.15,2.17.13,4.71,1.06,6.44.25,5.09-2.39,9.88-5.45,14.75-8.32.61-.36.98-1.13,1.46-1.71-1.37-.15-2.2.31-3.02.79-3.78,2.21-7.56,4.44-11.35,6.64-1.36.79-2.69,1.3-3.15-.95,5.39-2.73,10.78-5.45,16.16-8.18-.18-.31-.36-.62-.54-.93-4.43,2.03-8.85,4.06-13.28,6.09,1.76-1.72,3.53-3.45,5.09-4.97-.5-.95-1.07-2.03-1.56-2.96-1.9-.17-4.11-.36-6.37-.55.91.57,1.75,1.1,2.75,1.72-1.32,1.8-2.53,3.45-4.23,5.77,1.55.32,2.98.62,4.4.92ZM215.43,283.58c1.08,1.57,2.1,3.18,3.26,4.68.67.87,1.5,2.15,2.37,2.25,4.82.54,9.67.76,14.51,1.1-2.85-2.25-7.32.98-9.5-3.98,2.27-.13,4.19-.24,5.4-.31-2.39-.9-5.81-3.52-8.01-2.73-4.26,1.52-5.38-1.22-7.4-3.22.12-1.24.24-2.48.36-3.7-2.81-.99-5.74-2.02-8.73-3.07.27,5.16,1.85,8.96,7.72,8.99ZM191.18,265.69c1.74,6.65,3.48,13.31,5.22,19.96.4-.11.8-.23,1.2-.34-.98-3.6-1.97-7.19-3.16-11.54,3.06,1.11,5.37,1.95,8.27,3,1.1,3.92,2.43,8.65,3.85,13.69-1.34-.09-2.39-.15-3.44-.22l-.04.63c2.26.17,4.52.35,6.8.52-.96-.91-2.11-1.49-2.39-2.35-1.69-5.2-3.19-10.46-4.74-15.7-.52-1.76-1.69-3.7-1.32-5.26.64-2.73-.69-4.01-2.63-4.5-2.67-.67-5.5-.67-8.27-.95l.64,3.05ZM261.31,269.99c3.03-15.16,3.49-30.25.52-45.37.29,3.48.58,6.96.89,10.72-1.29-.15-2.18-.25-3.92-.45,1.86,1.16,2.95,1.85,4.46,2.79-1.19.63-1.84.98-1.75.93.54,1.72,1.2,3,1.21,4.29,0,.57-1.29,1.15-1.37,1.21.52,1.69,1.42,3.21,1.35,4.68-.32,7.07-.91,14.13-1.4,21.19ZM302.59,276.83c6.09-13.06,6.85-26.51,2.49-40.26,3.07,13.63,2.2,27.02-2.49,40.26ZM212.94,219.59c.12-.33.23-.67.35-1-3.91-1.57-7.82-3.15-11.98-4.82.49,2.08.88,3.71,1.05,4.42,3.5,3.83,6.61,7.23,9.99,10.94-.2-3.01-4.49-4.27-2.68-7.37-1.74-1.35-3.89-3.03-6.05-4.71.25-.33.49-.66.74-1,2.86,1.18,5.72,2.36,8.58,3.54ZM255.38,188.19c.41,1.69.76,3.16,1.18,4.9-.94.45-2.08,1.01-3.23,1.57.08.22.16.43.24.65,2.46-.72,4.92-1.44,7.38-2.17-.04-.16-.08-.32-.12-.48-1.06-.06-2.11-.11-3.24-.17.66-4.4-.14-8.17-2.09-11.12-1.37,1.67-2.48,3.02-3.52,4.29.92-.12,2.12-.29,3.32-.45.09.27.19.53.28.8-1.13.79-2.26,1.58-4.18,2.92,2-.37,3.07-.57,3.97-.74ZM212.38,243.85c.35.07.69.14,1.04.21,1.75-7.27,3.5-14.53,5.25-21.8-.36-.08-.72-.17-1.08-.25-2.83,7.02-4.84,14.23-5.21,21.83ZM189.21,253.55c2.77,1.09,4.74,1.48,6.19,2.56,1,.75,1.28,2.46,2.17,4.36-2.11-.56-3.08-.82-4.06-1.08-.09.39-.18.78-.26,1.17,2.63.57,5.26,1.14,7.72,1.68-1.28-1.64-2.34-2.98-3.39-4.33.27-.26.53-.51.8-.77,1.17.52,2.34,1.05,4.06,1.81-3.4-3.92-4.15-4.23-13.23-5.4ZM246.54,295.38c-7.79-.87-15.91-1.78-24.02-2.67,7.93,2.69,16.03,3.86,24.02,2.67ZM267.16,237.68v27.36c2.25-9.6,1.7-18.73,0-27.36ZM210.77,270.53c.24-.02.48-.05.72-.07-.58-6.07-1.17-12.15-1.75-18.22-.26.02-.52.05-.78.07.6,6.07,1.2,12.15,1.81,18.22ZM214.83,220.86c.19.33.39.66.58.99,3.09-1.45,6.19-2.9,9.28-4.34-.26-.52-.53-1.04-.79-1.56-3.02,1.64-6.05,3.27-9.07,4.91ZM281.67,176.79c.3-.19.59-.39.89-.58-2.57-3.93-5.15-7.85-7.72-11.78-.28.18-.56.37-.84.55,2.56,3.94,5.11,7.88,7.67,11.81ZM286.31,187.75c-.39,0-.77-.02-1.16-.02.86,3.88,1.72,7.76,2.58,11.64.34-.07.67-.14,1.01-.21-.81-3.8-1.62-7.6-2.43-11.41ZM232.11,204.13l-.57-1.18c-2.95,1.57-5.9,3.15-8.84,4.72.14.27.27.54.41.81,3-1.45,6-2.9,9-4.35Z"/>
  <path class="cls-1" d="M302.36,126.72c-.49-1.66-.97-3.32-1.48-5.05,15.66,9.47,21.02,14.06,16.68,31.32,2.48-3.37,2.57-3.98,2.24-15.42,6.67,5.98,11.63,12.53,9.3,21.9,3.72,2.08,2.32,5.48,2.41,8.67-4.94-6.58-10.79-10.92-19.73-8.54.08-.46.17-.92.25-1.38h11.15c0-.41,0-.81,0-1.22-3.56,0-7.12-.04-10.68.01-3.76.05-8.89.48-9.53-3.61-.66-4.17-4.09-5.84-5.2-9.22-.35-1.08-1.63-1.85-2.48-2.76,0,0,.13.15.13.15-.66-.7-1.26-1.95-1.98-2.02-3.95-.38-4.24-3.43-5.41-6.26-2.3-5.61-4.53-11.46-10.61-14.36l.15.14c-1.03-1.21-2.07-2.43-3.42-4.01,6.1-.69,11.5.84,17.21,2.08,6.04,1.32,7.88,5.82,11.09,9.5,1.28,6.35,2.55,12.71,3.63,18.06.85-6.47-.37-13-3.71-17.99ZM307.03,126.85c-.24.09-.49.18-.73.26,1.02,2.86,2.05,5.71,3.07,8.57.63-.28,1.26-.56,1.89-.83-1.41-2.67-2.82-5.34-4.23-8Z"/>
  <path class="cls-1" d="M402.75,391.39c2.75-4.28,4.83-8.09,7.48-11.46,2.12-2.7,4.7-5.2,7.53-7.12,1.26-.85,3.63-.06,5.49-.02-.14,1.9.46,4.56-.56,5.54-2.83,2.71-6.37,4.67-9.55,7.05-1.12.84-2.99,2.26-2.81,2.97.56,2.15,1.71,4.3,3.2,5.94.4.44,3.01-.67,4.27-1.55,4.49-3.14,8.03-7.12,10.58-12.09,1.57-3.05,3.54-6.34,7.59-6.46,1.61-.05,4.09.6,4.67,1.72.71,1.35.4,3.91-.49,5.28-1.44,2.2-3.48,4.21-5.68,5.66-4.33,2.85-5.8,6.08-4.46,12.37,7.94-2.84,10.82-10.63,16.07-15.9.27.26.59.53.58.55-4.32,5.55-8.48,11.23-13.08,16.54-1.89,2.19-4.58,1.31-6.62-.48-1.97-1.74-3.16-3.66-1.3-6.38.74-1.08.77-2.63.41-4.56-1.31.99-2.63,1.98-3.94,2.98-1.53,1.17-2.99,2.45-4.59,3.53-5.61,3.83-8.28,2.86-10.56-3.7-.21-.61-.51-1.18-.98-2.27-1.14,2.02-1.91,3.9-3.15,5.38-.99,1.19-2.57,1.89-3.89,2.81-.55-1.41-1.15-2.8-1.63-4.23-.15-.43.03-.97.1-2.41-1.94,2.94-3.12,5.41-4.94,7.23-1.28,1.29-3.6,2.54-5.16,2.24-1.28-.24-2.83-2.7-3.02-4.31-.32-2.84.3-5.78.61-9.62-.97,1.25-1.51,1.92-2.03,2.61-1.87,2.45-3.5,5.13-5.66,7.3-2.61,2.62-6.11,1.38-6.43-2.22-.56-6.25,1.59-11.86,5.78-16.33,3.98-4.25,6.48-3.46,9.25,2.23.31-.04.67-.04,1.01-.12,1.58-.37,3.16-.76,4.74-1.14-.08,1.65.03,3.34-.29,4.95-.87,4.3-1.94,8.57-2.18,13.11,4.98-4.07,8.53-8.71,10.5-14.77,2.93-9.05,6.45-17.9,9.83-26.8.49-1.28,1.49-2.42,2.41-3.48,1.83-2.11,4.05-3.54,6.75-1.65,2.4,1.69,3.9,4.23,2.25,7.02-4,6.75-8.46,13.22-12.46,19.97-2.21,3.71-3.89,7.73-5.74,11.65-.21.45.02,1.12.08,2.45ZM406.84,375.46c.42.21.85.42,1.27.63,3.63-6.74,7.32-13.44,10.8-20.25.45-.88-.18-2.32-.31-3.5-1.11.63-2.7.99-3.26,1.94-3.91,6.62-7.24,13.5-8.49,21.17ZM382.9,377.74c-3.97,1.5-8.39,12.35-6.55,17.15,2.74-5.84,10.26-8.92,6.55-17.15ZM409.73,383.95c4.99-.68,10.36-6.48,9.77-10.77-3.26,3.59-6.51,7.18-9.77,10.77ZM431.29,385.37c5.34-.91,8.31-5.75,5.88-10.45-2.08,3.7-3.89,6.92-5.88,10.45Z"/>
  <path class="cls-1" d="M260.8,390.56c3.48-2.89,6.96-5.77,10.45-8.66,1.76-1.46,3.59-2.86,5.26-4.43,1.07-1,1.97-2.2,2.81-3.41,1.64-2.37,3.14-5.06,6.69-3.96,3.11.96,4.78,4.24,4.22,7.83-.28,1.78-.7,3.54-1.06,5.3q1.81.37,6.64-5.92c3.24,1.47,2.33,3.36.98,5.81-1.08,1.97-1.33,4.38-1.28,6.73,2.74-4.76,5.39-9.58,8.26-14.26,1.09-1.78,2.36-4.37,5.06-2.87,2.61,1.45,1.78,3.87.74,6.14-.93,2.03-1.63,4.17-1.73,6.55,1.97-2.65,3.73-5.48,5.99-7.86,1.07-1.13,3.07-1.36,4.65-2,.4,1.77,1.47,3.71,1.08,5.28-.83,3.36-2.5,6.5-3.65,9.78-.55,1.58-.72,3.3-1.06,4.95.45.26.9.51,1.35.77,3.63-4.13,7.26-8.27,10.9-12.4l.81.48c-.71,1.33-1.29,2.75-2.17,3.96-2.27,3.13-4.49,6.32-7.08,9.18-2.48,2.74-5.06,2.24-6.64-1.18-1.76-3.81-.79-7.57.84-11.21.84-1.88,1.62-3.78,2.42-5.67-.33-.16-.67-.33-1-.49-3,4.39-6,8.79-9.23,13.53-3.38-2.86-1.7-5.91-.92-8.63.82-2.87,2.18-5.58,3.3-8.37-.32-.2-.65-.39-.97-.59-1.23,1.65-2.66,3.19-3.65,4.97-2.27,4.06-4.29,8.26-6.49,12.36-.48.89-1.3,1.6-1.96,2.39-.91-.98-2.36-1.84-2.61-2.96-.43-1.94-.12-4.04-.12-7.55-2.19,1.73-3.66,2.64-4.83,3.85-2.41,2.48-4.37,5.48-7.04,7.62-4.88,3.91-10.33,1.64-11.58-4.48-.13-.61-.16-1.25-.23-1.9-6.45,2.02-7.18,2.97-7.42,9.39-.25,6.82-5.31,11.24-11.02,9.63-5.01-1.42-6.3-5.69-2.65-9.41,1.79-1.83,3.88-3.45,6.08-4.75,1.96-1.16,2.28-2.28,1.66-4.41-.86-2.95-1.35-6.02-1.72-9.08-.16-1.31-.04-3.11.75-3.98,1.06-1.16,2.88-1.64,4.37-2.41-.02,1.37-.17,2.75-.04,4.11.37,3.79.85,7.56,1.29,11.34.53.3,1.05.6,1.58.91ZM276.31,381.94c-1.27,3.48-2.81,6.88-3.73,10.45-.67,2.59.95,4.01,3.27,2.36,3.03-2.17,5.63-4.94,8.48-7.5-3.05-2.02-5.23-3.46-8.01-5.3ZM287.41,374.97c-.46-.86-1.01-1.88-1.56-2.91-1.03.64-2.51,1.03-3.02,1.95-1.21,2.22-2.28,4.63-2.76,7.08-.19.96,1.13,2.87,2.14,3.2.84.28,2.83-.87,3.25-1.84.96-2.2,1.26-4.68,1.94-7.49ZM255.4,394.92c-2.93,2.45-5.19,4.1-7.12,6.07-.74.76-.73,2.26-1.06,3.42,1.31.09,2.84.66,3.9.19,3.63-1.62,4.5-4.82,4.28-9.68Z"/>
  <path class="cls-1" d="M171.56,376.72c8.33,2.55,10.2,6.55,6.92,14.04-4.19,9.58-12.72,13.58-22.05,15.97-3.38.86-7.16.14-10.82-.36,7.52-1.53,14.22-4.67,20.15-9.24,2.81-2.17,5.21-4.98,7.41-7.79.92-1.18,1.16-3.13,1.18-4.74.03-3.66-1.89-4.83-5.47-4.38-1.97.25-4.06-.51-6.12-1.42,8.39-6.19,15.45-12.59,16.53-23.01-.49-.42-.98-.84-1.46-1.26-1.95,1.84-4.19,3.46-5.8,5.56-7.49,9.77-14.22,20.01-18.14,31.82-.53,1.58-.48,3.37-1.13,4.88-.52,1.2-1.7,2.11-2.59,3.15-1.04-1.13-2.85-2.18-2.97-3.4-.35-3.44-.49-7.05.15-10.43,2.01-10.55,4.72-20.92,10.33-30.25,1.04-1.74,2.44-3.32,3.93-4.69.64-.59,1.94-.45,2.94-.64.22,1.16,1.05,2.82.57,3.4-6.56,7.97-8.52,17.81-11.3,27.31-.66,2.28-.93,4.67-1.37,7.01.34.1.67.2,1.01.3.43-.95.95-1.88,1.26-2.87,3.83-12.25,11.09-22.37,19.67-31.66.61-.66,1.3-1.25,2-1.82,3.82-3.07,7.03-1.87,8.11,3.02,1.43,6.53-2.41,14.46-9.27,19.11-1.04.7-2.09,1.37-3.66,2.39Z"/>
  <path class="cls-1" d="M232.83,382.48c-1.43.95-2.86,1.91-4.3,2.85-1.5.98-3.21,1.74-4.45,2.97-1.91,1.9-3.36,4.27-5.27,6.16-5.05,5-9.47,4.17-13.55-2.78-1.77,2.66-3.27,5.28-5.11,7.61-2.15,2.72-4.37,5.48-7,7.69-3.79,3.18-7.59,1.87-8.64-3.03-.6-2.81-.58-5.94-.07-8.79,2.85-15.88,7.37-31.18,17.14-44.37,1.25-1.69,4.12-3.85,5.51-3.42,3.25.99,4.04,4.47,2.69,7.42-2.76,6.05-5.87,11.97-9.13,17.77-1.82,3.25-4.24,6.17-6.39,9.23-4.37,6.24-5.03,13.43-4.84,20.68.08,3.24,2.14,3.94,4.22,1.3,4.3-5.46,8.29-11.2,12.01-17.08,2.38-3.75,4.46-7.47,8.75-9.48,1.19-.55,1.76-2.39,2.67-3.6,1.54-2.07,3.05-4.71,6.16-3.5,2.89,1.13,5.03,3.28,4.53,6.85-.3,2.16-.75,4.3-1.25,7.16,2.3-.56,4.35-1.06,6.39-1.56,0,0-.06-.1-.06-.1ZM191.7,378.43c5.95-2.11,7.23-7.9,9.85-12.55,2.68-4.76,5.91-9.44,5.32-15.57-2.04,1.91-3.47,4.15-4.85,6.43-4.16,6.85-3.85,15.83-10.32,21.69ZM213.84,381.91c-1.29,3.29-2.71,6.54-3.8,9.89-.29.89.1,2.37.74,3.06.42.45,1.97.26,2.79-.13,3.63-1.68,5.93-4.59,7.35-7.93-2.33-1.61-4.36-3.02-7.08-4.89ZM216.54,381.53c1.26,1.22,2.03,2.51,3.09,2.81.88.25,2.81-.42,3.04-1.1.95-2.77,1.54-5.68,1.98-8.58.12-.78-.59-1.98-1.28-2.47-.38-.27-1.9.29-2.25.87-1.57,2.58-2.9,5.31-4.57,8.47Z"/>
  <path class="cls-1" d="M116.3,385.82c-3.25-1.36-4.89-.3-6.3,2.54-1.71,3.45-3.78,6.81-6.23,9.75-1.18,1.42-3.79,2.71-5.41,2.38-1.27-.26-2.69-3.02-2.86-4.79-.28-2.83.42-5.76.08-8.96-1.19,1.99-2.34,4.02-3.6,5.97-.63.97-1.3,2.09-2.24,2.64-1.67.98-3.84,2.49-5.28,2.06-1.2-.37-1.69-3.18-2.42-4.95-.22-.54-.19-1.18-.4-2.62-2.67,3.34-4.73,6.23-7.12,8.83-3.3,3.59-6.43,3.78-9.29.69-1.5-1.61-3.37-3.29-.61-5.68.72-.62.71-2.51.5-3.72-.89-5.11,2.65-13.38,7.33-15.15,1.92-.72,4.86-.21,6.65.88.8.48.57,4.19-.39,5.68-1.47,2.29-3.77,4.21-6.07,5.77-2.78,1.89-5.44,6.58-4.78,9.87.52,2.63,2.33,2.39,3.65.96,4.18-4.52,8.18-9.21,12.15-13.91.98-1.17,1.52-2.7,2.38-3.98,4.18-6.26,7.66-6.23,11.32.23.42-.21.83-.51,1.29-.62,1.36-.31,2.74-.54,4.1-.8.08,1.42.72,3.12.15,4.2-2.28,4.38-2.66,8.97-1.97,14.2,1.01-.98,2.27-1.81,2.98-2.97,2.72-4.45,7.37-7.86,6.98-14.04-.16-2.59,2.19-3.59,5.51-2.94-.09.47-.07,1.02-.29,1.42-2.12,3.76-2.08,3.85,2.37,4.48,3.81.54,4.13,1.22,2.58,4.73-1.79,4.04-3.46,8.13-5.19,12.2.51.34,1.02.68,1.52,1.02,2.48-2.9,5.02-5.75,7.41-8.72,2.37-2.94,4.58-6.01,6.86-9.02.37.24.73.48,1.1.72-1.48,2.43-2.76,5.02-4.5,7.25-2.91,3.74-5.94,7.44-9.31,10.76-1.11,1.1-4.63,1.78-4.97,1.26-1.15-1.72-2.18-4.25-1.77-6.15.82-3.84,2.61-7.47,4.1-11.45ZM86.16,394.28c6.98-3.84,9.99-10.99,7.32-17.13-4.77,4.75-5.93,10.52-7.32,17.13ZM76.75,375.85c-.38-.19-.77-.37-1.15-.56-1.79,3.26-3.59,6.51-5.88,10.67,6.45-2.93,8.28-5.92,7.03-10.11Z"/>
  <path class="cls-1" d="M50.72,351.9c3.49,2.01,2.85,3.9,1.68,6.24-2.64,5.3-5.02,10.73-7.45,16.13-.16.35.1.88.24,1.76,3.18-4.42,5.96-8.54,9-12.45,2.29-2.94,4.7-5.85,7.48-8.3,1.41-1.24,4.74-2.53,5.48-1.87,1.67,1.49,3.33,4.28,3.14,6.37-.85,9.36-6.07,16.3-13.78,21.33-4.04,2.63-7.79,6.1-13.21,5.8-.52-.03-1.37,1.14-1.64,1.9-1.24,3.53-2.57,7.05-3.36,10.69-.49,2.24-1.56,3.56-3.51,2.9-.9-.3-1.76-2.63-1.59-3.9,1.71-12.67,6.62-24.31,11.96-35.78,1.67-3.58,3.6-7.03,5.57-10.83ZM43.95,383.86c9.59-1.12,22.37-17.86,20.07-26.78-8.94,7.43-14.71,16.59-20.07,26.78Z"/>
  <path class="cls-1" d="M364.63,367.95c1.53-3.47,3.21-7.05,4.65-10.72.31-.78-.24-1.89-.4-2.85-1.07.19-2.39.07-3.17.65-1.75,1.3-3.34,2.85-4.8,4.47-8.3,9.29-11.2,21.09-14.91,32.5-.39,1.2-.58,2.62-.33,3.83.44,2.13.72,5.23,2.1,5.97,1.51.8,4.78.05,6.26-1.22,3.78-3.24,7.02-7.11,10.41-10.79.91-.99,1.55-2.23,2.31-3.35.45.2.89.41,1.34.61-1.42,3.38-2.58,6.92-4.37,10.1-1.23,2.19-3.22,4.02-5.1,5.77-2.86,2.66-5.71,5.31-10.21,2.78-5.58-3.12-8.16-7.04-7.71-12.24,1.32-15.46,8.62-28.17,18.39-39.68,2.29-2.7,5.02-5.53,9.28-3.22,3.28,1.78,5.16,6.33,4.28,10.39-.88,4.11-4.12,6.82-8.03,7Z"/>
  <path class="cls-1" d="M307.33,106.45c2.16.58,4.58.72,6.41,1.83,3.19,1.92,6.09,4.36,8.96,6.76.71.6.84,1.9,1.25,2.91.36-.03,1.28-.42,1.72-.11,5.12,3.54,9.42,7.6,9.72,14.49.27,6.23.93,12.44,1.3,18.67.06.95-.51,1.93-.8,2.95.67-.14,1.17-.25,1.68-.36-.83,4.92-1.67,9.83-2.5,14.75-.57-.04-1.13-.09-1.7-.13,0-3.1-.26-6.22.07-9.28.35-3.2,1.9-6.1.48-9.63-.81-2.02.25-4.78.47-7.2-.45-.04-.9-.07-1.35-.11-.33,5.21-.66,10.42-1,15.7-1.89-5.76-3.68-11.23-5.54-16.89.89-1.35,1.85,5.07,3.57.18l1.24,5.57c-.44-4.73,3.06-9.64-.91-14.83-.14,2.96-.24,5.31-.35,7.66-.44,0-.88,0-1.31,0-.24-3.09-.37-6.19-.73-9.26-.4-3.36-1.44-6.41-4.75-8.14-1.31-.69-2.5-1.62-3.91-2.54-.5.66-1.01,1.34-1.73,2.28-2.96-5.13-9.26-7.44-10.69-13.69l.12.13c.21-.6.41-1.2.62-1.79,0,0-.33.1-.33.1Z"/>
  <path class="cls-1" d="M295.28,141.44c.72,1.59,1.45,3.19,2.17,4.78-4.11-5.31-10.56-5.44-16.1-7.62-4.18-1.64-8.58-3.76-11.64-6.88-2.12-2.16-2.14-6.39-2.5-10.15,1.21,1.28,2.42,2.57,3.76,3.98.59-.34,1.32-.77,2.78-1.62-4.14-1.94-7.73-3.62-11.32-5.31,5.14-3.78,10.18-3.64,15.13.46,0,0-.15-.14-.15-.14.77.98,1.49,2.01,2.32,2.93,4.43,4.9,7.57,10.45,8.64,16.65,2.45,1.07,4.74,2.07,7.03,3.06,0,0-.13-.15-.13-.15Z"/>
  <path class="cls-1" d="M232.89,382.58c.74-2.45,1.28-5,2.35-7.3.32-.68,2.16-.64,3.31-.93.07,1.04.15,2.08.21,3.12.24,4.08.46,8.17.76,13.36,4.91-2.95,8.55-5.13,12.19-7.32.24.24.47.47.71.71-.66.92-1.23,1.93-2.02,2.72-.71.72-1.6,1.36-2.53,1.77-5.09,2.23-7.52,5.43-7.3,11.61.23,6.51-6.64,10.1-12.13,7.33-3.45-1.74-4.4-5.05-1.82-7.92,1.95-2.16,4.42-3.91,6.86-5.56,1.8-1.22,2.37-2.38,1.53-4.49-.92-2.31-1.45-4.77-2.16-7.19,0-.01.05.09.05.09ZM235.87,394.96c-3.05,2.57-5.44,4.41-7.6,6.51-.57.56-.8,2.1-.43,2.79.29.54,1.78.72,2.67.59,3.47-.49,5.14-3.28,5.36-9.89Z"/>
  <path class="cls-1" d="M454.86,390.2c3.77-2.28,7.54-4.55,11.31-6.83.22.17.44.34.66.51-.49.86-.82,1.88-1.5,2.55-.91.89-2.01,1.67-3.16,2.23-4.87,2.36-7.79,5.18-7.32,11.61.46,6.28-6.83,10.12-12.19,7.42-3.32-1.67-4.33-5.15-1.86-7.9,1.95-2.17,4.43-3.92,6.85-5.59,1.73-1.19,2.38-2.18,1.72-4.43-.97-3.3-1.63-6.79-1.71-10.22-.04-1.63,1.44-3.39,2.52-4.88.34-.48,1.82-.64,2.39-.29.51.3.65,1.5.67,2.3.1,4.34.12,8.69.17,13.03.49.16.97.32,1.46.49ZM449.85,395.12c-2.58,2.23-4.94,4.08-7.04,6.2-.66.67-.6,2.05-.87,3.1,1.17.14,2.44.64,3.5.35,3.26-.89,4.79-4.19,4.4-9.65Z"/>
  <path class="cls-1" d="M266.52,97.97c-3,3.8-6.01,7.59-8.99,11.4-3.23,4.13-6.44,8.28-9.62,12.36-1.98-2.1-1.93-5.02.41-8.05,2.72-3.52,5.42-7.04,8.08-10.61.66-.89,1.13-1.92,1.75-2.98-1.09.12-1.91.21-2.73.3.22-.77.31-1.61.7-2.28.8-1.41,1.76-2.73,2.49-3.82,2.67,1.26,5.36,2.52,8.06,3.79l-.13-.12Z"/>
  <path class="cls-1" d="M307.33,106.45s.33-.1.33-.1c-2.56.68-5.09,1.6-7.69,1.92-1.29.16-2.72-.81-3.92-1.21.11.35.37,1.16.63,1.95-3.89,2-6.87,1.48-8.51-3.19-.25.27-.5.54-.75.81.88,1.3,1.76,2.6,2.64,3.9-.26.29-.52.58-.78.88-1.22-1.26-2.48-2.48-3.66-3.78-.94-1.04-1.79-2.18-2.67-3.28l.09.11c.6-.54,1.12-1.39,1.81-1.58,7.04-1.93,14.03-1.81,20.8,1.08.77.33,1.13,1.64,1.68,2.5Z"/>
  <path class="cls-1" d="M302.1,114.1c1.18,6.33,7.57,7.2,11.09,11.28-7.99-3.34-15.61-7.3-22.66-12.29.24-.39.47-.79.71-1.18,1.72,1.31,3.45,2.62,5.17,3.93l.55-.49c-1.11-1.19-2.22-2.39-3.33-3.58.17-.25.34-.49.5-.74,1.04.78,2.21,1.44,3.08,2.38,1,1.07,1.74,2.39,2.59,3.59.37-.37.74-.74,1.12-1.11-1.36-1.62-2.71-3.24-4.07-4.85.2-.25.41-.49.61-.74,1.59,1.3,3.18,2.61,4.78,3.92,0,0-.13-.12-.13-.12Z"/>
  <path class="cls-1" d="M319.36,131.16c-.19-1.34-.37-2.67-.56-4.01.32-.1.64-.2.96-.3.74,2.19,1.49,4.38,2.23,6.57.21-.05.43-.1.64-.15-.32-1.82-.64-3.64-.96-5.46.3-.08.6-.15.9-.23.9,3.63,1.8,7.26,2.7,10.9-.25.07-.51.14-.76.21-3.72-3.91-7.44-7.81-11.11-11.67,3.88-1.91,4.15,2.1,5.97,4.15Z"/>
  <path class="cls-1" d="M246.46,134.84c0,4.17-.17,8.36.09,12.52.1,1.56,1.26,3.04,1.78,4.61.67,1.99,1.18,4.03,1.82,6.22-3.17.1-4.86-.79-4.87-3.6-.02-6.59,0-13.19,0-19.78.4.01.8.03,1.19.04Z"/>
  <path class="cls-1" d="M306.92,108.02c1.51,4.55,3.01,9.1,4.73,14.3-2.07-2.5-3.83-4.62-5.6-6.75-1.12-1.7-2.23-3.4-3.35-5.11.26-2.99,2.57-2.15,4.34-2.31,0,0-.12-.13-.12-.13Z"/>
  <path class="cls-1" d="M240.23,157.81c-1.62-1.15-2.39-1.7-3.3-2.35-.03,2.21-4.07,5.75-5.73,5.21-.48-.16-1.19-1.18-1.11-1.28,1.08-1.37,2.04-3.21,3.51-3.85,3.27-1.45,5.13-.81,6.64,2.27Z"/>
  <path class="cls-1" d="M247.23,305.73v-4.2h6.16c-.27,1.62-.48,2.93-.75,4.55-1.88-.12-3.59-.24-5.41-.36Z"/>
  <path class="cls-1" d="M266.65,98.09c-1.43-1.16-2.98-2.2-4.23-3.51-.66-.7-.81-1.88-1.19-2.85.93-.13,2.27-.7,2.72-.3,1.55,1.41,2.83,3.13,4.05,4.84.1.14-.96,1.11-1.48,1.7,0,0,.13.12.13.12Z"/>
  <path class="cls-1" d="M282.94,104.35c-1.15,1.26-2.3,2.52-3.45,3.78,0,0-.02,0-.02,0-.21-.23-.43-.47-.64-.7,0,0,.1.13.1.13-.33-.33-.67-.66-1-.99,0,0-.1-.01-.1-.01-.55,1.06-1.1,2.13-1.64,3.19-.94-.71-1.88-1.42-3.27-2.46,3.42-.99,5.87-4.49,10.11-2.83,0,0-.08-.1-.08-.1Z"/>
  <path class="cls-1" d="M325.73,126.24c.62,4.26,1.24,8.52,1.85,12.79-.39.06-.79.12-1.18.18-.84-4.29-1.69-8.58-2.53-12.87.62-.03,1.24-.06,1.86-.1Z"/>
  <path class="cls-1" d="M242,301.01q4.59-.27,3.91,3.93c-4.11.67-4.18.6-3.91-3.93Z"/>
  <path class="cls-1" d="M302.71,110.46c1.12,1.7,2.23,3.4,3.35,5.11-.44.24-1.09.8-1.3.67-.95-.6-1.78-1.4-2.66-2.13,0,0,.13.12.13.11-.8-1.39-1.59-2.78-2.87-5.01,1.55.58,2.44.91,3.34,1.25Z"/>
  <path class="cls-1" d="M220.21,302.79c-1.84-1.19-3.68-2.37-5.52-3.56.27-.47.54-.94.82-1.41,1.98,1.08,3.95,2.16,5.93,3.24-.41.57-.81,1.15-1.22,1.72Z"/>
  <path class="cls-1" d="M279.47,108.12s.03,0,.02,0c1.53,1.15,3.07,2.29,4.61,3.43-.11.2-.22.4-.32.59-1.22-.1-2.44-.2-3.64-.29.12-.37.37-.81.28-1.15-.24-.89-.62-1.74-.95-2.6Z"/>
  <path class="cls-1" d="M279.47,108.12c.33.86.71,1.71.95,2.6.09.34-.16.77-.28,1.15-1.34-.72-2.66-1.43-3.96-2.13.56-1.06,1.11-2.13,1.65-3.19,0,0,.1,0,.1,0,.33.33.67.66,1.01.99,0,0-.1-.13-.1-.13.21.23.43.47.64.7Z"/>
  <path class="cls-1" d="M278.83,107.42s.1.13.1.13c0,0-.1-.13-.1-.13Z"/>
  <path class="cls-1" d="M277.93,106.56s-.1,0-.1,0c0,0,.1,0,.1,0Z"/>
</svg>