<?xml version="1.0" encoding="UTF-8"?>
<svg id="Layer_1" data-name="Layer 1" xmlns="http://www.w3.org/2000/svg" viewBox="0 0 500 500">
  <defs>
    <style>
      .cls-1 {
        fill: #fff;
        stroke-width: 0px;
      }
    </style>
  </defs>
  <path class="cls-1" d="M167.85,241.89c-.83-5.48-3.67-9.7-9.01-11.67-5.43-2.01-10.71-1.79-15.38,2.17-1.86,1.41-3.48.25-5.14-.49-5-3.66-10.43-3.81-15.75-1.22-5.13,2.5-8.37,6.79-8.52,12.69-.21,7.94-.07,15.89-.14,23.84-.01,1.55.42,2.25,2.1,2.21,3.93-.09,7.86-.09,11.79,0,1.75.04,2.34-.58,2.32-2.32-.08-5.55-.03-11.11-.03-16.66,0-.96-.03-1.92.04-2.87.07-1.02-.03-2.37,1.39-2.43,1.49-.06,1.39,1.29,1.47,2.32.06.76.03,1.53.03,2.3,0,5.65.09,11.3-.04,16.95-.05,2.18.67,2.83,2.79,2.74,3.64-.15,7.28-.12,10.92-.01,1.86.06,2.52-.54,2.49-2.45-.1-5.94-.06-11.87-.01-17.81.01-1.19-.39-2.51.64-3.54.57.08,1.15.1,1.73.13.75.91.52,2.01.52,3.04.03,6.03.07,12.06-.01,18.09-.02,1.79.42,2.6,2.39,2.54,3.83-.13,7.67-.1,11.5,0,1.72.04,2.41-.5,2.33-2.29-.12-2.68.02-5.36-.04-8.04-.12-5.74.48-11.51-.38-17.21Z"/>
  <path class="cls-1" d="M283.02,241.82c-.67-9.85-7.61-14.43-16.99-11.9-1.6.43-2.12.04-2.1-1.52.03-3.16-.1-6.33.04-9.48.1-2.2-.57-3.11-2.91-3-3.54.17-7.1.15-10.64,0-2.08-.09-2.82.48-2.78,2.7.14,7.95.05,15.9.05,23.86,0,8.14.07,16.29-.05,24.43-.03,2.06.64,2.61,2.6,2.53,3.73-.14,7.48-.12,11.22,0,1.88.06,2.52-.6,2.49-2.47-.08-5.84-.09-11.69.02-17.53.03-1.44-.76-3.91,1.57-3.9,2.2.01,1.28,2.41,1.3,3.73.12,5.94.06,11.88.05,17.82,0,1.22.01,2.33,1.72,2.32,4.31-.03,8.63-.02,12.95,0,1.19,0,1.71-.48,1.7-1.72-.07-8.62.34-17.27-.25-25.86Z"/>
  <path class="cls-1" d="M39.5,277.57s0-.01,0-.02c0,0,0,0,0,0-.18-.52-.51-1.23-.94-2.18-4.82-10.63-7.51-21.68-6.32-33.46.83-8.19,3.2-15.93,6.82-23.28.95-1.93.76-2.81-1.63-2.7-2.39.11-4.8.16-7.19-.02-2.13-.16-3.34.73-4.36,2.5-10.45,18.03-11.13,36.32-1.81,55.04,1.62,3.24,3.37,5.78,6.22,5.97v.02h9.37s.26-.28-.05-1.46c-.03-.12-.06-.25-.11-.4Z"/>
  <path class="cls-1" d="M187.02,217.58c-.7-1.12-1.47-1.64-2.75-1.63-2.97.03-5.94.04-8.92,0-1.74-.03-1.93.63-1.21,2.08,1.59,3.17,2.88,6.47,3.98,9.84,2.9,8.85,4.27,17.82,2.83,27.13-1.11,7.14-3.07,14-6.2,20.51-1.7,3.53-1.68,3.54,2.12,3.55,1.92,0,3.86-.2,5.75.05,2.63.35,4-.92,5.24-2.98,5.31-8.84,8.09-18.34,7.84-28.99.34-10.58-2.93-20.42-8.67-29.56Z"/>
  <path class="cls-1" d="M347.5,215.93c-3.73.07-7.47.12-11.2-.02-2.15-.08-2.81.67-2.78,2.79.1,8.03.04,16.07.04,24.11,0,8.04.04,16.07-.03,24.11-.02,1.81.46,2.58,2.41,2.52,3.92-.13,7.85-.09,11.77-.02,1.5.03,1.99-.52,1.99-2-.04-16.45-.04-32.91,0-49.36,0-1.66-.64-2.16-2.21-2.13Z"/>
  <path class="cls-1" d="M107.24,232.71c0-1.05.12-2.12-.68-2.99-.08-.15-6.8-.23-14.67-.03-.91.55-.78,1.45-.78,2.3,0,11.76.04,23.52-.04,35.28-.01,1.9.77,2.19,2.38,2.16,3.63-.08,7.28-.15,10.9.02,2.26.11,2.96-.61,2.94-2.89-.1-11.28-.05-22.56-.05-33.84Z"/>
  <path class="cls-1" d="M308.33,229.08c-11.51,0-20.97,9.14-21.04,20.31-.07,11.52,9.1,20.56,20.88,20.6,11.94.04,21.13-8.77,21.17-20.3.04-11.45-9.3-20.62-21.01-20.61ZM308.33,254.2c-2.87,0-4.76-1.78-4.79-4.53-.03-2.53,2.14-4.72,4.7-4.76,2.56-.03,4.95,2.09,5.03,4.48.09,2.61-2.16,4.8-4.94,4.8Z"/>
  <path class="cls-1" d="M375.19,229.04c-10.56-.11-21.16,8.9-20.99,20.63.17,11.54,9.21,20.33,21.18,20.31,11.81-.02,20.77-8.8,20.77-20.34s-9.21-20.48-20.97-20.6ZM375.33,254.2c-2.87,0-4.76-1.78-4.79-4.53-.03-2.53,2.14-4.72,4.7-4.76,2.56-.03,4.95,2.09,5.03,4.48.09,2.61-2.16,4.8-4.94,4.8Z"/>
  <ellipse class="cls-1" cx="99.13" cy="220.22" rx="8" ry="7.5"/>
  <path class="cls-1" d="M72.18,215.63c-12.94-3.88-25.25,4.24-26.63,17.41-.64,6.13-.09,12.25-.35,17.22,0,6.41.04,11.68-.02,16.95-.02,1.57.45,2.24,2.13,2.21,4.5-.08,9.01-.06,13.52-.01,1.47.02,2.04-.53,2.01-2.03-.07-3.16-.02-6.32-.02-9.48,0-5.99,0-5.96,6.06-6.42,6.09-.47,11.54-2.31,14.76-7.96,6.2-10.88.65-24.26-11.45-27.89ZM65.78,236.51c-.93.21-1.91.24-2.87.35l-.66-1.93c.38-.75.62-1.63,1.18-2.22.68-.72,1.65-.92,2.66-.47,1.01.44,1.49,1.23,1.46,2.27-.04,1.09-.76,1.77-1.78,2.01Z"/>
  <path class="cls-1" d="M481.38,232.63c0-1.05.1-2.13-.82-2.92-4.67-.67-9.34-.64-14.01-.01-1.6.34-1.34,1.6-1.34,2.72,0,5.45,0,10.9,0,16.34,0,.86.02,1.74-.15,2.57-.19.96-.63,1.87-1.85,1.85-1.25-.02-1.56-.93-1.66-1.94-.07-.76-.06-1.53-.06-2.29,0-5.54-.04-11.09.01-16.63.02-1.63-.41-2.49-2.25-2.45-4.02.08-8.04.06-12.05.01-1.47-.02-2.02.56-2.01,2.04.06,8.12-.1,16.25.14,24.37.09,3.02.92,5.78,2.73,7.98h0s3.34,4.94,8.64,4.84c0,0,0,0,.01,0,2.03.19,4.1-.24,6.1-.41.29.69.05,1.09-.24,1.48-1.99,2.65-5.64,3.47-9.69,1.91-1.85-.71-2.38-.35-2.34,1.57.08,3.35.07,6.71,0,10.06-.03,1.39.53,2.07,1.83,2.46,4.33,1.28,8.75,1.57,13.04.28,10.2-3.05,15.75-10.6,15.91-21.63.15-10.73.04-21.46.05-32.19Z"/>
  <path class="cls-1" d="M437.83,240.9c-3.84-10.36-15.41-14.8-26.75-10.23-1.92.67-3.98,2.13-3.98,2.13h0c-4.76,2.99-7.43,7.48-8.52,13.11-2.44,12.62,8.4,23.94,20.55,21.5.96-.19,2.23-1.08,2.8.15.54,1.14-.53,2.13-1.39,2.89-2.78,2.46-5.9,1.96-8.87.63-2.14-.96-2.44-.2-2.37,1.68.08,2.29,0,4.59.02,6.89.06,7.1-.73,5.42,5.6,6.69,7.07,1.42,14.48-1.48,18.86-6.83.02-.02.03-.02.05-.04,2.83-2.54,3.98-6.81,3.98-6.81h-.02c.33-.78.53-1.63.68-2.47,1.34-7.58,1.05-15.21.57-22.83-.14-2.18-.43-4.36-1.21-6.45ZM416.92,244.68h0s0,0,0,0h0ZM415.29,250.2c-1.05-2.18.04-3.98,1.63-5.52,2.26-.33,4.67-.89,5.75,1.99,1.1,2.94.5,4.28-2.35,5.92,0,0,0,0,0,0-2.12.12-4.06-.39-5.03-2.39Z"/>
  <path class="cls-1" d="M240.93,249.79c-3.73.21-7.47.35-11.2.43-1.45.03-2.4.43-3.26,1.77-1.66,2.59-4.49,3.07-6.69,1.46-2.35-1.71-2.77-4.48-1.03-6.79,1.63-2.16,4.47-2.48,6.84-.57,1.06.86,2.09,1.17,3.4,1.11,3.92-.19,7.85-.39,11.78-.41,2.18,0,2.36-.98,1.85-2.7-.93-3.18-2.45-6.03-4.7-8.45-6.89-7.41-18.67-8.77-27.08-3.18-8.53,5.67-11.6,16.3-7.39,25.55,4.29,9.43,14.41,14.06,24.66,11.29,0,0,5.44-1.02,9.67-5.66.02-.02.03-.03.04-.05,2.99-3.06,4.72-6.95,5.35-11.57.26-1.89-.54-2.33-2.24-2.23Z"/>
</svg>