<?xml version="1.0" encoding="UTF-8"?>
<svg id="Layer_1" data-name="Layer 1" xmlns="http://www.w3.org/2000/svg" viewBox="0 0 500 500">
  <defs>
    <style>
      .cls-1 {
        fill: #fff;
        stroke-width: 0px;
      }
    </style>
  </defs>
  <path class="cls-1" d="M332.77,230.65c11.59,16.15,29.48,20.12,46.53,15.24.67-.19,1.64-.23,1.59-1.26-.05-.9-.6-1.55-1.54-1.73-.82-.16-1.63-.32-2.46-.4-4.63-.45-8.9-1.98-12.95-4.2-7.54-4.15-12.8-10.57-17.23-17.69-10.98-17.67-20.37-36.24-30.36-54.47-1.62-2.95-1.37-4.12,1.4-6.16,3.34-2.46,6.84-4.69,10.27-7.02,15.7-10.69,25.01-24.89,23.97-44.52-.66-12.48-5.3-23.5-13.73-32.7-8.22-8.97-18.8-12.99-30.83-13.05-22.32-.12-44.65-.05-66.98-.04-5.98,0-7.56,1.55-7.57,7.54,0,11.83.06,23.66.07,35.49.03,25.08.02,50.15.09,75.23.01,4.37-1.55,7.69-5.76,9.24-9.59,3.56-19.06,7.43-28.52,11.31-4.06,1.66-5.86.9-8-2.88-9.96-17.58-19.86-35.19-29.89-52.73-5.26-9.19-12.65-16.04-22.92-19.32-8.87-2.83-17.8-3.39-26.66.04-.68.26-2.19.15-1.88,1.48.22.96,1.37,1.02,2.29,1.17,3.53.57,7.06,1.09,10.42,2.41,9.08,3.56,15.56,10.1,20.51,18.23,11.09,18.18,21.03,37.02,31.41,55.6,2.27,4.06,1.63,5.74-2.62,7.88-3.86,1.95-7.69,3.93-11.13,6.62-14.06,11.01-21.65,25.38-21.55,43.26.07,11.87,4.67,22.42,12.26,31.49,8.29,9.91,19.1,14.74,31.99,14.76,22.91.04,45.82,0,68.72,0,.75,0,1.51,0,2.24-.1,2.35-.33,3.79-1.64,4-4.07.11-1.33.1-2.66.1-3.99,0-18.08,0-36.16,0-54.23h-.21c0-9.33.02-18.66,0-27.99-.03-9.33-.13-18.66-.15-27.99,0-5.44,1.45-7.33,6.53-9.28,8.86-3.4,17.7-6.85,26.51-10.36,5.21-2.07,7.39-1.42,10.07,3.35,5.38,9.57,10.67,19.19,16.15,28.7,5.23,9.08,9.66,18.64,15.78,27.17ZM231.54,296.74c-1.57,4.95-5.15,7.58-10.1,8.57-4.52.91-9.11.84-13.69.78-7.31-.09-14.67.55-21.86-1.4-10.45-2.83-16.94-9.77-18.82-20.17-3.52-19.46-.88-38.15,9.27-55.39,7.4-12.58,17.66-21.89,31.66-26.84,7.21-2.55,14.07-6.02,21.3-8.54,3.23-1.13,3.55-1,3.56,2.5.03,15.49.02,30.97.02,46.46h.06c0,14.9,0,29.81,0,44.71,0,3.18-.44,6.3-1.41,9.33ZM288.19,167.86c-9.03,3.84-18.1,7.58-27.36,10.86-2.71.96-3,.75-3-2.17-.01-15.73,0-31.47,0-47.2.08,0,.16,0,.24,0,0-14.99.02-29.97-.02-44.96,0-2.35.27-4.65.71-6.94,1.15-6.08,4.91-9.95,11.05-10.46,10.96-.92,21.98-1.06,32.91.05,9.59.97,17.72,8.91,20.37,18.6,3.63,13.29,2.31,26.38-1.36,39.38-2.78,9.85-7.01,19.02-13.21,27.22-5.35,7.08-12.27,12.18-20.35,15.61Z"/>
  <path class="cls-1" d="M395.89,380.23c-2.85-8.39-10.21-14.57-18.11-15.13-7.94-.57-15.88,4.2-19.55,12.17-5.03,10.91-4.53,21.61,2.75,31.36,7.6,10.17,20.57,10.23,28.46,2.63,5.8-5.59,8.21-12.55,8.11-21.28.15-2.83-.49-6.31-1.66-9.74ZM389.34,396.01c-.51,4.52-1.74,8.84-4.33,12.63-5.39,7.86-12.98,7.48-17.72-.81-2.86-5.01-4.19-10.53-4.16-17.25.06-6.71,1.44-13,5.55-18.53,4.43-5.96,11.56-5.87,15.77.3,4.91,7.2,5.84,15.25,4.89,23.66Z"/>
  <path class="cls-1" d="M283.81,373.46c-7.09-9.57-20.32-10.75-28.85-2.51-9.77,9.44-10.91,27.16-2.44,37.79,8.26,10.35,21.7,10.99,30.27,1.32,4.74-5.34,6.61-11.82,6.76-18.9-.13-6.46-1.82-12.41-5.75-17.7ZM276.89,408.76c-5.41,7.92-13.11,7.92-17.71-.51-6.13-11.24-5.89-22.81,0-34.17,1.03-1.99,2.73-3.58,4.62-4.84,3.88-2.57,9.11-1.18,12.23,3.09,3.24,4.44,4.76,9.46,5.27,14.85.14,1.49.23,2.98.35,4.47-.47,6.01-1.21,11.92-4.74,17.09Z"/>
  <path class="cls-1" d="M148.96,370.95c-9.77,9.44-10.91,27.16-2.44,37.79,8.26,10.35,21.7,10.99,30.27,1.32,4.74-5.34,6.61-11.82,6.76-18.9-.13-6.46-1.82-12.41-5.75-17.7-7.09-9.57-20.32-10.75-28.85-2.51ZM170.89,408.76c-5.41,7.92-13.11,7.92-17.71-.51-6.13-11.24-5.89-22.81,0-34.17,1.03-1.99,2.73-3.58,4.62-4.84,3.88-2.57,9.11-1.18,12.23,3.09,3.24,4.44,4.76,9.46,5.27,14.85.14,1.49.23,2.98.35,4.47-.47,6.01-1.21,11.92-4.74,17.09Z"/>
  <path class="cls-1" d="M126.63,412.99c-3.33-5.17-6.58-10.39-9.89-15.58-1.66-2.6-1.64-2.77.99-4.33,6.07-3.6,8.48-9.44,6.68-16.19-1.8-6.76-6.79-10.67-13.79-10.79-3.75-.06-7.5.04-11.24-.13-2.44-.11-3.19.89-3.16,3.22.1,7.16.04,14.33.04,21.49,0,7.16-.02,14.33,0,21.49.01,2.91.45,3.18,3.34,3.32,2.6.12,3.13-1.3,3.02-3.43-.04-.83-.01-1.67-.01-2.5-.01-4-.1-8-.02-11.99.05-2.68,1.32-3.36,3.76-2.26,1.77.79,2.82,2.28,3.83,3.82,3.06,4.65,6.06,9.34,9.21,13.94,1.62,2.37,3.7,2.91,6.34,2.2,1.43-.39,1.75-.95.91-2.27ZM107.95,393.66c-6.03-.21-5.31.53-5.35-5.41-.02-2.33,0-4.66,0-6.99h.07c0-2.91-.02-5.83,0-8.74.03-3.64,1.71-5.01,5.41-4.45,9.67,1.45,14.43,10.9,10,19.8-2.1,4.23-5.51,5.96-10.13,5.8Z"/>
  <path class="cls-1" d="M337.55,407.36c-7.51,10.99-19.99,9.45-24.95-3.17-1.12-2.85-1.81-6.02-2.12-9.11-.7-7.01-.21-13.94,3.42-20.07,2.76-4.66,6.88-6.48,11.88-5.93,3.96.44,6.01,3.41,7.36,7.07,1.64,4.41,2.97,5.05,7.75,3.05-1.71-5.76-5.02-9.84-10.21-11.81-13.01-4.96-26.11,3.79-28.28,18.77-1.96,13.49,3.34,24.28,13.89,28.3,11.54,4.41,22.04-.93,24.71-13.11-1.14,2.01-2.16,4.12-3.45,6Z"/>
  <path class="cls-1" d="M205.6,404.19c-1.12-2.85-1.81-6.02-2.12-9.11-.7-7.01-.21-13.94,3.42-20.07,2.76-4.66,6.88-6.48,11.88-5.93,3.96.44,6.01,3.41,7.36,7.07,1.64,4.41,2.97,5.05,7.75,3.05-1.71-5.76-5.02-9.84-10.21-11.81-13.01-4.96-26.11,3.79-28.28,18.77-1.96,13.49,3.34,24.28,13.89,28.3,11.54,4.41,22.04-.93,24.71-13.11-1.14,2.01-2.16,4.12-3.45,6-7.51,10.99-19.99,9.45-24.95-3.17Z"/>
  <polygon class="cls-1" points="129.14 446.68 126.42 438.94 124.64 438.94 128.48 449.44 129.77 449.44 133.61 438.94 131.85 438.94 129.14 446.68"/>
  <rect class="cls-1" x="139.4" y="438.94" width="1.65" height="10.5"/>
  <polygon class="cls-1" points="155.57 446.54 148.97 438.94 147.87 438.94 147.87 449.44 149.48 449.44 149.48 441.85 156.08 449.44 157.16 449.44 157.16 438.94 155.57 438.94 155.57 446.54"/>
  <polygon class="cls-1" points="166.95 443.36 164.58 438.94 162.71 438.94 166.1 445.03 166.1 449.44 167.75 449.44 167.75 445.03 171.15 438.94 169.31 438.94 166.95 443.36"/>
  <polygon class="cls-1" points="178.35 438.94 176.7 438.94 176.7 449.44 182.36 449.44 182.36 447.89 178.35 447.89 178.35 438.94"/>
  <polygon class="cls-1" points="196.13 449.44 197.78 449.44 197.78 444.94 201.35 444.94 201.35 443.39 197.78 443.39 197.78 440.47 201.5 440.47 201.5 438.94 196.13 438.94 196.13 449.44"/>
  <polygon class="cls-1" points="209.27 438.94 207.62 438.94 207.62 449.44 213.27 449.44 213.27 447.89 209.27 447.89 209.27 438.94"/>
  <path class="cls-1" d="M226.17,439.49c-.83-.48-1.75-.71-2.75-.71s-1.92.24-2.76.71c-.84.47-1.5,1.12-2,1.95-.49.83-.73,1.74-.73,2.75s.25,1.93.73,2.75c.49.82,1.16,1.47,2,1.95.84.48,1.76.71,2.76.71s1.92-.24,2.75-.71c.83-.47,1.5-1.12,1.99-1.95.49-.83.74-1.74.74-2.75s-.25-1.93-.74-2.75c-.49-.82-1.15-1.47-1.99-1.95ZM226.69,446.15c-.34.59-.79,1.06-1.37,1.4s-1.21.51-1.91.51-1.34-.17-1.92-.51-1.04-.81-1.37-1.4-.5-1.25-.5-1.96.17-1.38.5-1.97c.33-.59.79-1.06,1.37-1.4s1.22-.51,1.92-.51,1.34.17,1.91.51,1.03.81,1.37,1.4c.33.6.5,1.25.5,1.97s-.17,1.38-.5,1.96Z"/>
  <path class="cls-1" d="M242.68,439.49c-.84-.48-1.75-.71-2.75-.71s-1.92.24-2.76.71c-.84.47-1.51,1.12-2,1.95-.49.83-.74,1.74-.74,2.75s.25,1.93.74,2.75c.49.82,1.16,1.47,2,1.95.84.48,1.76.71,2.76.71s1.92-.24,2.75-.71c.83-.47,1.5-1.12,1.99-1.95.49-.83.73-1.74.73-2.75s-.25-1.93-.73-2.75c-.49-.82-1.15-1.47-1.99-1.95ZM243.21,446.15c-.33.59-.79,1.06-1.37,1.4s-1.21.51-1.91.51-1.34-.17-1.92-.51-1.04-.81-1.37-1.4-.5-1.25-.5-1.96.17-1.38.5-1.97c.33-.59.79-1.06,1.37-1.4s1.22-.51,1.92-.51,1.34.17,1.91.51,1.03.81,1.37,1.4c.33.6.5,1.25.5,1.97s-.17,1.38-.5,1.96Z"/>
  <path class="cls-1" d="M257.89,444.03c.42-.54.62-1.17.62-1.9,0-.61-.15-1.16-.45-1.64s-.73-.87-1.28-1.14c-.55-.27-1.19-.41-1.93-.41h-3.3v10.5h1.65v-4.11h1.08l3.39,4.11h2.05l-3.55-4.29c.73-.21,1.3-.58,1.72-1.12ZM253.2,443.78v-3.31h1.63c.62,0,1.11.16,1.46.46.35.31.53.71.53,1.2s-.17.89-.53,1.19c-.35.3-.83.46-1.46.46h-1.63Z"/>
  <path class="cls-1" d="M278.6,444.08c-.42-.21-.96-.43-1.64-.66-.5-.16-.9-.31-1.19-.44s-.54-.3-.73-.52c-.19-.22-.28-.5-.28-.83,0-.43.16-.77.48-1,.32-.24.73-.36,1.23-.36.54,0,.97.15,1.3.44s.5.67.52,1.13h1.67c0-.61-.17-1.15-.49-1.61-.32-.47-.73-.83-1.25-1.08s-1.08-.38-1.7-.38c-.66,0-1.25.12-1.78.37-.53.25-.94.58-1.23,1.01-.29.43-.44.92-.44,1.46,0,.67.15,1.21.44,1.62s.65.72,1.06.92.96.42,1.63.65c.52.17.92.32,1.21.46s.53.31.73.53c.2.22.29.5.29.85,0,.45-.17.8-.5,1.07-.33.26-.8.39-1.39.39-.65,0-1.15-.17-1.51-.5-.36-.33-.54-.76-.56-1.3h-1.68c.01.65.17,1.22.48,1.72.31.5.75.89,1.31,1.16.56.27,1.22.41,1.97.41.7,0,1.32-.13,1.86-.38s.96-.6,1.26-1.05c.3-.44.45-.94.45-1.49,0-.68-.15-1.23-.45-1.65-.3-.42-.66-.73-1.07-.95Z"/>
  <path class="cls-1" d="M293.84,439.49c-.83-.48-1.75-.71-2.75-.71s-1.92.24-2.76.71c-.84.47-1.5,1.12-2,1.95-.49.83-.73,1.74-.73,2.75s.25,1.93.73,2.75c.49.82,1.16,1.47,2,1.95.84.48,1.76.71,2.76.71s1.92-.24,2.75-.71c.83-.47,1.5-1.12,1.99-1.95.49-.83.74-1.74.74-2.75s-.25-1.93-.74-2.75c-.49-.82-1.15-1.47-1.99-1.95ZM294.37,446.15c-.34.59-.79,1.06-1.37,1.4s-1.21.51-1.91.51-1.34-.17-1.92-.51-1.04-.81-1.37-1.4-.5-1.25-.5-1.96.17-1.38.5-1.97c.33-.59.79-1.06,1.37-1.4s1.22-.51,1.92-.51,1.34.17,1.91.51,1.03.81,1.37,1.4c.33.6.5,1.25.5,1.97s-.17,1.38-.5,1.96Z"/>
  <polygon class="cls-1" points="304.37 438.94 302.72 438.94 302.72 449.44 308.37 449.44 308.37 447.89 304.37 447.89 304.37 438.94"/>
  <path class="cls-1" d="M320.03,445.4c0,.8-.22,1.44-.65,1.93-.44.49-1.04.73-1.81.73s-1.37-.24-1.8-.73c-.43-.49-.65-1.13-.65-1.93v-6.46h-1.65v6.53c0,.81.17,1.53.5,2.16.33.63.81,1.12,1.43,1.46s1.34.52,2.16.52,1.54-.17,2.17-.52,1.11-.83,1.44-1.46c.33-.63.5-1.35.5-2.16v-6.53h-1.65v6.46Z"/>
  <polygon class="cls-1" points="327.27 440.47 329.93 440.47 329.93 449.44 331.58 449.44 331.58 440.47 334.23 440.47 334.23 438.94 327.27 438.94 327.27 440.47"/>
  <rect class="cls-1" x="340.05" y="438.94" width="1.65" height="10.5"/>
  <path class="cls-1" d="M356.17,439.49c-.84-.48-1.75-.71-2.75-.71s-1.92.24-2.76.71c-.84.47-1.51,1.12-2,1.95-.49.83-.74,1.74-.74,2.75s.25,1.93.74,2.75c.49.82,1.16,1.47,2,1.95.84.48,1.76.71,2.76.71s1.92-.24,2.75-.71c.83-.47,1.5-1.12,1.99-1.95.49-.83.73-1.74.73-2.75s-.25-1.93-.73-2.75c-.49-.82-1.15-1.47-1.99-1.95ZM356.69,446.15c-.33.59-.79,1.06-1.37,1.4s-1.21.51-1.91.51-1.34-.17-1.92-.51-1.04-.81-1.37-1.4-.5-1.25-.5-1.96.17-1.38.5-1.97c.33-.59.79-1.06,1.37-1.4s1.22-.51,1.92-.51,1.34.17,1.91.51,1.03.81,1.37,1.4c.33.6.5,1.25.5,1.97s-.17,1.38-.5,1.96Z"/>
  <polygon class="cls-1" points="372.74 446.54 366.14 438.94 365.04 438.94 365.04 449.44 366.65 449.44 366.65 441.85 373.25 449.44 374.33 449.44 374.33 438.94 372.74 438.94 372.74 446.54"/>
</svg>