<?xml version="1.0" encoding="UTF-8"?>
<svg id="Layer_1" data-name="Layer 1" xmlns="http://www.w3.org/2000/svg" viewBox="0 0 500 500">
  <defs>
    <style>
      .cls-1 {
        fill: #fff;
        stroke-width: 0px;
      }
    </style>
  </defs>
  <path class="cls-1" d="M195.58,222.32c-4.62-2.14-9.48-2.62-14.5-1.95-7.77,1.04-13.74,4.85-17.75,11.61-3.27,5.52-4.29,11.61-4.33,17.93-.01,4.84.63,9.59,2.28,14.16,2.12,5.9,5.72,10.6,11.45,13.4,4.74,2.32,9.79,2.8,14.98,2.1,7.79-1.04,13.59-5.02,17.4-11.88,2.65-4.77,3.8-9.97,4.16-15.35.39-5.81.02-11.54-2.13-17.04-2.25-5.76-5.85-10.32-11.56-12.97ZM207.17,248.98c-.03,5.43-.72,10.74-3,15.72-3.58,7.84-9.62,12.28-18.29,12.95-6.4.49-12.14-1.09-16.85-5.63-3.46-3.34-5.46-7.54-6.53-12.16-1.75-7.55-1.74-15.1.87-22.45,2.9-8.16,8.51-13.45,17.24-14.85,6.88-1.1,13.28.09,18.65,4.89,3.74,3.34,5.92,7.63,6.91,12.48.61,2.97.84,6.01,1.25,9.02l-.26.03Z"/>
  <path class="cls-1" d="M128.64,222.4c-4.59-2.18-9.45-2.63-14.42-2.02-7.82.96-13.82,4.8-17.84,11.6-3.26,5.53-4.32,11.62-4.37,17.72.05,4.13.43,8,1.5,11.78,1.51,5.35,4.01,10.12,8.49,13.58,5.78,4.46,12.44,5.54,19.47,4.43,8.1-1.28,13.84-5.86,17.39-13.21,2.11-4.39,3.04-9.07,3.43-13.9.44-5.46-.06-10.81-1.81-15.99-2.09-6.21-5.79-11.12-11.84-14ZM139.99,251.9c-.23,4.03-.91,7.96-2.43,11.71-2.75,6.79-7.39,11.61-14.66,13.34-6.71,1.6-13.18,1.06-18.94-3.19-4.28-3.15-6.75-7.53-8.21-12.55-1.07-3.66-1.46-7.42-1.47-11.97.03-5.04.88-10.66,3.76-15.79,3.84-6.85,9.77-10.52,17.56-11.19,5.26-.45,10.21.51,14.62,3.55,4.82,3.32,7.45,8.09,8.88,13.63,1.06,4.1,1.12,8.26.88,12.46Z"/>
  <path class="cls-1" d="M258.69,223.67c-3.72-1.55-7.63-2.3-11.63-2.4-5.63-.14-11.27-.11-16.91-.15-.25,0-.5.03-.81.05v57.67c.28,0,.47,0,.67,0,4.78,0,9.57.07,14.35-.03,2.44-.05,4.9-.24,7.29-.7,9.51-1.85,16.16-7.22,19.21-16.53,2.62-8,2.65-16.14.23-24.2-1.94-6.47-6.12-11.09-12.39-13.7ZM268.85,260.63c-2.8,8.79-8.97,13.89-17.93,15.6-2.47.47-5.03.61-7.55.68-3.95.11-7.91.03-11.93.03v-53.81c2.53,0,5.01-.04,7.48.01,3.69.08,7.4.07,11.08.39,3.88.33,7.58,1.5,10.91,3.61,4.55,2.89,7.22,7.13,8.45,12.26,1.72,7.11,1.71,14.24-.51,21.24Z"/>
  <path class="cls-1" d="M64.59,251.86c5-1.4,8.55-4.41,10.2-9.41,1.21-3.67,1.32-7.44.51-11.21-.82-3.81-3.06-6.53-6.64-8.13-2.8-1.26-5.76-1.8-8.79-1.84-6.09-.1-12.18-.06-18.27-.08-.22,0-.44.03-.69.05v57.57h1.92v-26.3c.44,0,.77,0,1.11,0,5.38,0,10.76.03,16.14-.02.92,0,1.39.27,1.84,1.07,4.58,8.19,9.21,16.36,13.83,24.53.17.29.44.69.7.73.68.11,1.38.03,2.21.03-5.13-8.96-10.18-17.77-15.26-26.64.44-.13.81-.24,1.19-.34ZM57.78,250.53c-4.75.11-9.5.04-14.26.04-.19,0-.39-.03-.64-.06v-27.35c.3-.01.56-.04.81-.04,4.72,0,9.45-.02,14.17.02,2.97.03,5.91.33,8.72,1.37,3.78,1.39,6.01,4.1,6.66,8.05.59,3.62.42,7.21-1.04,10.64-1.53,3.6-4.38,5.71-8.09,6.56-2.06.47-4.21.71-6.33.76Z"/>
  <path class="cls-1" d="M335.27,240c-3.76,11.78-7.53,23.56-11.29,35.34-.13.42-.27.84-.46,1.42-.12-.39-.19-.6-.25-.81-3.23-11.76-6.45-23.53-9.68-35.29-.56-2.03-.56-2-2.72-2.04-.72-.01-1.02.19-1.22.91-2.44,8.85-4.92,17.69-7.39,26.54-.98,3.5-1.96,6.99-3.01,10.73-.19-.5-.29-.73-.37-.97-2.4-7.32-4.8-14.64-7.2-21.96-1.58-4.84-3.18-9.67-4.74-14.51-.18-.56-.43-.8-1.01-.73-.41.05-.84,0-1.35,0,.11.4.18.7.27.99,2.58,7.77,5.17,15.54,7.76,23.3,1.69,5.07,3.37,10.15,5.07,15.21.09.27.36.65.57.67.75.08,1.52.03,2.29.03,3.63-12.83,7.24-25.58,10.84-38.32.26.32.36.61.44.9,3.22,11.82,6.44,23.65,9.66,35.47.54,1.97.54,1.94,2.59,1.98.67.01.91-.22,1.11-.83,3.61-11.32,7.24-22.64,10.87-33.95.57-1.78,1.13-3.56,1.7-5.35-1.93-.31-1.99-.28-2.49,1.27Z"/>
  <path class="cls-1" d="M372.74,239.23c-2.71-1.23-5.59-1.52-8.52-1.25-5.99.55-10.55,3.33-13.36,8.74-1.48,2.85-2.15,5.92-2.37,9.1-.32,4.73-.02,9.39,1.65,13.88,1.2,3.23,3.09,6,6.13,7.74,4.93,2.82,10.19,3.12,15.49,1.32,4.76-1.62,7.15-5.42,8.47-10.11-.42-.09-.74-.18-1.07-.24-.33-.06-.66-.1-1-.15-.1.33-.19.6-.28.86-1.27,3.76-3.54,6.6-7.4,7.93-2.36.82-4.8.86-7.26.56-3.98-.5-7.26-2.18-9.46-5.67-1.65-2.61-2.39-5.51-2.78-8.53-.19-1.45-.26-2.92-.39-4.48h30.24c.05-3.86.31-7.6-.85-11.22-1.23-3.84-3.52-6.8-7.26-8.49ZM378.6,256.95h-27.9c.15-1.23.25-2.41.45-3.57.65-3.69,1.96-7.08,4.74-9.72,3.15-2.99,7-3.97,11.24-3.68,2.89.2,5.52,1.06,7.63,3.16,1.27,1.27,2.13,2.79,2.73,4.48,1.06,3,1.24,6.1,1.11,9.33Z"/>
  <path class="cls-1" d="M424.87,277.5c-1.7.09-2.46-.57-2.72-2.25-.09-.56-.1-1.13-.1-1.7,0-7.35.03-14.69-.03-22.04-.02-2.07-.18-4.16-.54-6.19-.61-3.41-2.53-5.87-5.98-6.74-4.21-1.06-8.47-1.06-12.63.29-3.72,1.2-6.37,4.81-6.54,8.7.68.12,1.37.25,2.13.39.13-.52.23-.99.36-1.45.74-2.76,2.3-4.8,5.08-5.74,2.95-.99,5.98-1.08,9.02-.59,3.86.63,5.69,2.4,6.47,6.23.63,3.12.48,6.29.41,9.44,0,.04-.07.09-.05.07-3.07,0-6.08-.04-9.1.01-2.74.04-5.45.35-8.08,1.18-3.04.97-5.53,2.65-6.94,5.64-1.02,2.17-1.23,4.48-1.13,6.84.24,5.74,4.05,9.69,9.77,10.12,5.81.43,10.95-1.19,15.37-5.03.11-.1.26-.16.37-.22.16.92.26,1.8.47,2.64.29,1.17,1.05,1.96,2.26,2.18,1.81.32,3.55.04,5.27-.79-.17-.53-.32-1.03-.46-1.46-.96.17-1.82.42-2.68.46ZM419.93,270.6c0,.43-.2.95-.48,1.27-3.43,3.89-7.82,5.79-12.95,5.89-2.6.05-5.08-.52-7.08-2.41-1.31-1.24-2.11-2.76-2.41-4.5-.58-3.35-.29-6.54,2.1-9.21,1.38-1.53,3.2-2.34,5.16-2.83,5.16-1.3,10.38-.84,15.69-.69,0,.4,0,.68,0,.95,0,3.84.01,7.68-.02,11.53Z"/>
  <path class="cls-1" d="M450.97,239.08c-2.59,1.01-4.74,2.68-6.85,4.62-.12-1.79-.23-3.4-.34-5.03h-1.65v40.13h2.08c0-.42,0-.78,0-1.15,0-10.25,0-20.5-.01-30.75,0-.61.14-1.06.58-1.51,2.13-2.13,4.65-3.64,7.48-4.63,2.2-.77,4.46-1.06,6.84-.81v-1.98c-2.82-.25-5.51.08-8.13,1.1Z"/>
</svg>