<?xml version="1.0" encoding="UTF-8"?>
<svg id="Layer_1" data-name="Layer 1" xmlns="http://www.w3.org/2000/svg" viewBox="0 0 500 500">
  <defs>
    <style>
      .cls-1 {
        fill: #fff;
        stroke-width: 0px;
      }
    </style>
  </defs>
  <path class="cls-1" d="M425.04,174.85c-.13-.76-.79-.96-1.39-1.13-.53-.14-1.1-.22-1.65-.2-8.91.35-17.82.21-26.72,0-.47-.01-.96,0-1.42.12-.62.15-1.26.36-1.33,1.16-.06.73.33,1.26.96,1.49,1.11.41,2.27.69,3.4,1.06,3.19,1.03,5,3.11,5.27,6.56.25,3.18-.43,6.16-1.67,9.01-4.37,10.04-11.06,18.64-17.23,27.93-5.93-10.88-11.73-21.48-17.47-32.12-.94-1.75-1.42-3.7-1.48-5.71-.08-2.89.99-4.4,3.77-5.3.83-.27,1.69-.42,2.53-.65,1.1-.31,2.69-.26,2.53-1.9-.14-1.5-1.61-1.5-2.8-1.62-.32-.03-.64-.03-.95-.02-11.46.37-22.91.22-34.37.01-1.05-.02-2.45-.34-2.68,1.24-.22,1.52,1.17,1.77,2.19,2.03,5.39,1.36,8.94,4.87,11.55,9.57,7.26,13.1,14.53,26.19,21.83,39.27.48.86.73,1.7.73,2.69-.02,10.09,0,20.17-.03,30.26-.01,4.09-1.51,5.95-5.45,6.91-1.62.39-3.28.63-4.9,1-.96.22-1.91.69-1.88,1.81.03,1.16.97,1.54,2,1.63.79.07,1.59.16,2.38.13,10.9-.37,21.8-.36,32.7,0,1.03.03,2.06-.11,3.08-.24.83-.11,1.58-.48,1.71-1.39.16-1.1-.67-1.6-1.53-1.81-1.69-.42-3.43-.66-5.13-1.05-4.7-1.06-6.1-2.79-6.11-7.58-.01-11.2.01-22.4-.03-33.6,0-1.25.29-2.28.99-3.32,5.79-8.63,11.44-17.35,17.34-25.91,5.3-7.7,11.08-14.97,20.11-18.71.69-.29,1.29-.68,1.14-1.58Z"/>
  <path class="cls-1" d="M118,301.73c-.68-6.19-4.51-8.97-11.23-8.29-3.47.35-5.74,2.59-7.6,5.4-4.15-6.93-10.7-7.4-16.98-1.27,0-.59,0-1.05,0-1.5,0-1.06.35-2.14-1.54-2.11-1.91.03-1.49,1.17-1.49,2.19-.01,9.29,0,18.58-.03,27.88,0,1.22.16,1.87,1.65,1.86,1.5,0,1.42-.81,1.41-1.82-.01-5.4-.02-10.8,0-16.2.01-2.56.36-5.08,1.43-7.42,1.43-3.12,4.09-4.52,7.55-4.09,3.17.39,4.95,2.05,5.6,5.54.3,1.63.33,3.32.34,4.98.04,5.48,0,10.96.03,16.44,0,1.12-.63,2.6,1.63,2.58,2.16-.02,1.45-1.45,1.46-2.45.06-5.64.03-11.28.05-16.92,0-2.25.42-4.43,1.46-6.44,1.58-3.06,4.67-4.37,8.52-3.66,2.89.53,4.52,2.6,4.8,6.22.12,1.5.1,3.02.1,4.52.01,5.72.03,11.44-.02,17.16,0,1.12.32,1.61,1.48,1.53.88-.06,1.77.13,1.73-1.27-.21-7.62.45-15.25-.39-22.85Z"/>
  <path class="cls-1" d="M267.76,319.42c-4.81-5.08-4.96-13.3-.33-18.67,5.04-5.86,12.23-5.84,20.74.04.8-2.57-.11-4.16-2.52-5.44-7.11-3.77-16.02-2.22-20.99,3.84-5.06,6.18-4.95,15.78.25,21.72,5.31,6.07,14.11,7.33,21.26,3.14,2.24-1.32,3.31-2.92,2.38-5.53-8.43,6.38-15.33,6.66-20.78.91Z"/>
  <path class="cls-1" d="M389.89,308.12c-2.03-.89-4.12-1.64-6.11-2.6-2.55-1.24-3.63-3.4-2.95-5.54.83-2.6,3.41-4.11,6.18-3.66,1.75.29,3.11,1.16,4.07,2.63.9,1.39,1.64.1,2.37-.16.95-.34.45-.95.1-1.5-1.85-2.91-6.06-4.56-9.62-3.75-3.42.78-5.91,3.49-6.32,6.89-.42,3.53,1.13,6.1,5.06,8,1.99.97,4.1,1.67,6.14,2.54,2.54,1.08,4.22,2.81,4.15,5.76-.07,2.9-2.02,5.5-4.79,6.47-3.88,1.35-7.89-.49-9.83-4.84-.75-1.69-1.55-.69-2.44-.56-1.44.22-.73,1.12-.52,1.74,1.42,4.11,5.64,6.92,10.39,6.97,4.9.05,8.94-2.99,10.01-7.52,1.12-4.74-1.03-8.73-5.89-10.87Z"/>
  <path class="cls-1" d="M180.62,308.14c-2.11-.9-4.28-1.68-6.34-2.68-2.21-1.08-3.26-3.22-2.82-5.24.46-2.1,2.46-3.81,4.81-3.97,2.32-.16,4.19.76,5.49,2.69.92,1.37,1.61.06,2.37-.15.72-.2.64-.64.3-1.26-1.43-2.66-5.75-4.69-9.03-4.18-3.69.57-6.36,3.12-7.08,6.76-.63,3.16.89,6.14,4.34,7.94,2.17,1.13,4.52,1.9,6.76,2.88,3.1,1.35,4.28,3.08,4.15,5.96-.13,2.96-2.02,5.41-4.9,6.35-3.75,1.22-7.86-.63-9.53-4.61-.66-1.58-1.34-1.23-2.5-.88-1.75.53-.7,1.53-.39,2.2,1.98,4.32,5.47,6.39,8.94,6.54,6.34.07,10.46-3.01,11.3-7.96.78-4.6-.86-8.26-5.86-10.4Z"/>
  <path class="cls-1" d="M362.78,308.19c-2.1-.93-4.27-1.71-6.32-2.71-2.47-1.21-3.53-3.49-2.82-5.6.82-2.41,3.21-3.92,5.77-3.63,1.83.21,3.39,1,4.35,2.58.86,1.42,1.59.29,2.35.02.86-.3.7-.8.31-1.47-1.58-2.68-5.81-4.57-9.11-3.99-3.63.64-6.28,3.21-6.85,6.66-.58,3.48.84,6.25,4.45,8.1,2.1,1.08,4.39,1.8,6.57,2.75,3.72,1.62,5.02,4.26,3.88,7.79-1.1,3.39-4.56,5.5-8.04,4.81-3.02-.6-5.22-2.31-6.26-5.24-.56-1.58-1.43-.64-2.26-.52-1.24.18-.97.86-.7,1.67,1.39,4.17,5.67,7.06,10.55,7.08,4.87.02,8.92-3.08,9.93-7.62,1.05-4.67-1.06-8.59-5.79-10.7Z"/>
  <path class="cls-1" d="M202.57,294.02c-.87.07-1.76-.07-2.62.03-1.42.16-1.74-.47-1.7-1.77.09-2.62-.03-5.24.05-7.86.03-1.21-.09-1.86-1.6-1.84-1.43.02-1.48.67-1.46,1.74.05,2.62-.06,5.24.05,7.86.06,1.45-.35,2.07-1.85,1.86-1.03-.14-1.81-.06-1.79,1.41.02,1.4.69,1.64,1.77,1.45,1.73-.3,1.9.62,1.88,2.03-.07,4.13-.03,8.26-.03,12.38,0,4.21.01,8.41,0,12.62,0,1.1-.09,1.95,1.53,1.95,1.66,0,1.5-.92,1.49-1.98-.01-7.46,0-14.92,0-22.39,0-4.3,0-4.37,4.27-4.57,1.27-.06,1.36-.59,1.39-1.6.03-1.06-.33-1.42-1.36-1.34Z"/>
  <path class="cls-1" d="M300.39,303.34c0-6.82,0-13.64,0-20.46,0-1.12.22-2.15-1.6-2.09-1.6.05-1.54.87-1.54,1.97.01,13.72.01,27.44,0,41.16,0,1.13-.03,1.91,1.55,1.97,1.83.07,1.6-.98,1.6-2.09,0-6.82,0-13.64,0-20.46Z"/>
  <path class="cls-1" d="M257.58,293.54c-3.77-.83-6.4.86-8.68,4.42,0-1.27-.07-1.92.01-2.54.16-1.22-.43-1.44-1.5-1.42-1.03.02-1.56.12-1.55,1.39.06,9.68.04,19.36.01,29.04,0,.96.22,1.36,1.3,1.45,1.65.13,1.73-.67,1.76-1.98.12-7.05-.5-14.13.38-21.16.61-4.87,2.74-6.58,7.62-6.24,1.54.11,1.64-1.14,1.96-1.93.43-1.05-.73-.91-1.31-1.04Z"/>
  <path class="cls-1" d="M336.4,247.9c1.34-11.62-2.95-20.15-14.13-24.7-2.94-1.2-6.04-1.91-9.16-2.54-4.36-.88-8.83-.82-13.2-1.58,3.9-.31,7.74-.81,11.52-1.71,6.35-1.51,12.42-3.68,16.63-9.02,6.95-8.81,4.18-22.15-5.84-28.6-7.13-4.59-15.18-6.13-23.43-6.14-24.43-.01-48.86.56-73.29-.1-.55-.01-1.12,0-1.66.11-.74.15-1.32.49-1.34,1.41-.01.86.41,1.35,1.17,1.57.84.24,1.69.44,2.54.62,4.34.91,7.39,3.47,9.43,7.33,2.15,4.04,2.72,8.41,2.72,12.9,0,14.3,0,28.6,0,42.9,0,3.83-.34,7.62-1.46,11.3-1.76,5.76-4.98,10.39-10.5,13.18-6.3,3.17-12.96,3.46-19.74,2.29-5.04-.87-9.51-2.97-13.1-6.73-4.69-4.92-6.06-10.98-6.07-17.51-.01-19.14-.01-38.29,0-57.43,0-4.91,1.53-6.72,6.31-7.64,1.17-.23,2.35-.4,3.5-.71,1.05-.28,2-.81,1.81-2.12-.18-1.18-1.15-1.39-2.15-1.44-.4-.02-.8-.02-1.19,0-11.14.32-22.28.33-33.42,0-.63-.02-1.28-.02-1.9.08-.74.11-1.37.44-1.48,1.3-.11.88.16,1.63,1.05,1.9,1.21.37,2.44.68,3.69.92,5.52,1.07,6.83,2.61,6.83,8.13,0,19.14-.02,38.29.01,57.43.02,11.7,5.51,19.92,16.18,24.64,8.96,3.96,18.41,4.53,28.05,3.78,16.39-1.28,27.06-12.13,27.39-28.5.29-14.77.1-29.55.17-44.32.02-4.21.22-8.4,1.65-12.44,2.57-7.28,8.85-10.63,16.24-8.61,3.56.98,5.31,3.08,5.31,6.63.02,24.78.02,49.57,0,74.35,0,3.99-1.43,5.71-5.35,6.71-.92.23-1.9.27-2.8.57-1.38.47-3.68.16-3.36,2.48.29,2.13,2.38,1.49,3.74,1.45,14.48-.46,28.96-.14,43.45.02,4.93.06,9.85-.24,14.71-1.25,12.29-2.55,19.15-9.23,20.49-20.89ZM284.57,176.85c4.69.13,9.41-.29,14.05.57,10.79,2,16.62,9.54,16.23,20.63-.16,4.5-.75,8.86-3.57,12.57-3.96,5.2-9.73,6.57-15.77,7.08-3.72.32-7.47.1-11.21.25-1.5.06-1.87-.43-1.85-1.88.08-6.19.03-12.39.03-18.58,0-6.19.06-12.39-.04-18.58-.03-1.7.5-2.12,2.14-2.08ZM307.2,265.04c-5.93,1.89-12.04,2.08-18.13.92-4.62-.88-6.66-3.22-6.71-7.87-.12-11.74-.04-23.48-.09-35.22,0-1.32.5-1.6,1.68-1.56,2.3.07,4.61.02,7.45.02,4.52.27,9.58.36,14.49,2.02,7.28,2.46,11.75,7.35,13.14,14.82,1.07,5.75.95,11.5-1.21,17.08-1.94,5.02-5.62,8.21-10.61,9.8Z"/>
  <path class="cls-1" d="M168.35,268.73c.36-2.27-2.13-2.24-3.62-2.52-6.59-1.23-10.83-5.13-13.61-11.06-2.76-5.87-5.69-11.67-8.72-17.41-3.91-7.38-9.88-12.06-18.33-13.28-1.95-.28-3.88-.66-5.82-.99,9.49-1.23,15.85-2.95,21.51-6.06,9.14-5.03,13.4-13.09,11.71-22.34-1.54-8.41-7.03-13.64-14.42-17.11-7.56-3.55-15.68-4.53-23.93-4.41-11.53.16-23.06.38-34.59-.02-.48-.02-.96-.02-1.43.01-.98.07-1.96.2-2.14,1.43-.19,1.33.72,1.84,1.77,2.13.99.27,2.01.45,3.02.65,5.46,1.03,6.77,2.59,6.77,8.17,0,23.9,0,47.8,0,71.7,0,.71.02,1.43-.04,2.14-.23,3-1.48,4.64-4.37,5.52-1.59.48-3.25.75-4.87,1.1-1.23.26-2.44.61-2.28,2.19.16,1.56,1.53,1.5,2.58,1.47,11.69-.33,23.38-.33,35.07.02.16,0,.32-.01.48-.04.95-.16,1.97-.25,2.04-1.55.06-1.19-.74-1.71-1.71-1.96-1.54-.39-3.12-.62-4.65-1.01-3.8-.96-5.11-2.63-5.24-6.55-.04-1.19,0-2.38,0-3.57,0-9.37-.01-18.74.02-28.11,0-.71-.57-1.91.97-1.9,3.1.02,6.21-.06,9.14,1.19,4.67,1.99,7.27,6.03,9.72,10.12,6.12,10.19,11.43,20.83,17.04,31.3.73,1.37,1.51,1.86,3.09,1.86,6.92-.02,13.84.17,20.76.2,1.48,0,3.76.69,4.08-1.32ZM104.89,221.98c-1.53.02-1.37-.9-1.37-1.86,0-6.99,0-13.98,0-20.97,0-6.75.06-13.5-.04-20.25-.03-1.73.52-2.12,2.14-2.05,3.41.14,6.83-.01,10.25.33,9.2.91,14.53,5.42,16.5,14.41,1.47,6.72,1.27,13.39-1.47,19.83-2.15,5.06-6.19,7.9-11.33,9.31-4.81,1.32-9.75,1.19-14.68,1.25Z"/>
  <path class="cls-1" d="M339.93,295.89c0-1.13.02-1.94-1.56-1.92-1.45.01-1.74.58-1.64,1.83.08,1.02.02,2.06.02,3.63-.7-.75-1.05-1.14-1.42-1.52-5.89-6.12-16.23-6.27-21.99-.04-4.88,5.28-5.46,11.68-3.31,18.25,1.75,5.32,5.52,8.82,11.14,9.98,5.86,1.21,10.84-.35,14.73-5,.17-.2.26-.62.84-.37,0,1.03.04,2.13-.01,3.22-.06,1.15,0,1.94,1.57,1.93,1.49-.01,1.64-.68,1.63-1.89-.04-9.37-.03-18.73,0-28.1ZM336.86,310.79c-.73,6.79-3.98,11.15-9.26,12.42-7.26,1.74-14-2.88-15.29-10.5-.17-1.01-.24-2.05-.33-2.83-.08-7.71,6.01-13.97,13.09-13.67,7.42.31,12.62,6.75,11.78,14.59Z"/>
  <path class="cls-1" d="M156.12,293.99c-1.19-.01-1.5.41-1.43,1.51.08,1.21.02,2.43.02,4.04-7.07-8.7-18.04-7.03-23.17-2.05-6.13,5.95-6.24,18.27-.11,24.48,6.42,6.51,15.57,5.96,23.28-1.65,0,1.46.05,2.57-.01,3.68-.06,1.16.02,1.92,1.58,1.89,1.43-.03,1.48-.71,1.48-1.78-.02-9.52-.04-19.05.02-28.57,0-1.33-.48-1.54-1.65-1.55ZM154.8,311.17c-.2,4.05-1.89,9.14-7.77,11.49-7.81,3.13-15.44-1.65-16.91-10.48-.85-5.11.44-9.66,4.58-13.03,3.56-2.9,7.64-3.74,12.05-2.17,5.15,1.83,8.26,6.66,8.05,14.2Z"/>
  <path class="cls-1" d="M228.93,294.81c-5.72-2.67-11.35-1.94-16.28,2.13-5.03,4.15-6.24,9.65-5.41,15.88.85,6.37,5.46,11.8,11.43,13.21,6.61,1.56,13.33-1.07,16.95-6.46,1.02-1.52.56-2.12-.85-2.77-1.44-.66-1.36.71-1.75,1.26-3.25,4.54-8.82,6.56-14.1,5.03-4.78-1.38-8.44-5.93-8.82-10.76-.13-1.59.16-2.23,1.96-2.16,3.89.15,7.8.05,11.7.05,4.06,0,8.12-.01,12.18,0,.95,0,1.67.03,1.58-1.34-.41-6.21-2.77-11.36-8.58-14.08ZM211.48,307.34c-1,0-1.39-.15-1.18-1.32.98-5.45,6.75-10.07,12.39-9.81,6.17.29,11.23,5.07,11.62,11.11-7.61,0-15.22-.01-22.83.02Z"/>
</svg>