<?xml version="1.0" encoding="UTF-8"?>
<svg id="Layer_1" data-name="Layer 1" xmlns="http://www.w3.org/2000/svg" viewBox="0 0 500 500">
  <defs>
    <style>
      .cls-1 {
        fill: #fff;
        stroke-width: 0px;
      }
    </style>
  </defs>
  <g>
    <path class="cls-1" d="M200.3,234.54h0s0,0,0,0c-1.36-.04-2.73-.02-4.08-.14-1.39-.13-1.99.41-2.29,1.78-1.25,5.63-2.54,11.25-3.96,16.84-.99,3.91-1.12,8.18-4.3,11.27-.5.23-.98.49-1.28,1.33,3.15,0,6.19-.02,9.24.01.96,0,1.18-.54,1.35-1.34.76-3.62,1.57-7.22,2.37-10.83h0,0c.93-3.52,1.98-7.02,2.44-10.65.77-3.16,2.11-6.02,4.98-8.28-1.77-.19-3.12-.28-4.46.02Z"/>
    <path class="cls-1" d="M389.82,234.57c-2.75-1.26-4.38-1.04-6.56.96-7.92,7.26-15.85,14.5-23.72,21.81-1.23,1.15-1.86,1.13-2.67-.38-1.29-2.4-2.58-4.82-4.33-6.94-.36-.68-.69-1.39-1.1-2.05-2.76-4.47-5.14-9.17-8.34-13.37-3.44-1.94-6.76-.67-7.62,2.96-.72,3.03-1.33,6.08-2,9.12h0s0,0,0,0c-1.42,5.79-2.83,11.58-4.28,17.36-.32,1.26-.16,1.92,1.32,1.5q5.13.21,6.35-4.66c.21-.85.33-1.72.5-2.58.78-3.23,1.56-6.46,2.34-9.69,0,0,0,0,0,0,.3-1.02.6-2.03.96-3.24,1.62,1.44,2.18,3.31,3.35,4.74h0c2.12,3.39,4.23,6.78,6.35,10.17.65,1.1,1.27,2.22,1.94,3.31,1.86,2.99,4.73,3.58,7.47,1.35,1.73-1.41,3.24-3.09,4.85-4.65,3.74-3.03,7.26-6.3,10.63-9.73,1.99-1.7,3.98-3.41,6.22-5.33-.35,2.05-.64,3.68-.92,5.31-.9,2.81-1.55,5.68-1.99,8.6-.05.14-.1.29-.12.44-.41,1.55-.82,3.1-1.24,4.64-.22.84-.08,1.26.96,1.4,5.05.66,5.72.24,6.73-4.64.08-.39.11-.79.16-1.18,1.02-3.19,1.74-6.44,2.29-9.73h0c1.1-4.43,2.2-8.86,3.29-13.29.22-.91.25-1.77-.82-2.21Z"/>
    <path class="cls-1" d="M187.49,234.37c-8.56.06-17.12,0-25.69.07-1.74.01-3.57-.2-5.22.66,0,0,0,0,0,0,0,0,0,0,0,0-4.14.83-6.67,3.84-7.31,8.69h0,0c-2.01,5.71-.35,8.32,5.54,8.72.8.05,1.61.05,2.42.06,5.08,0,10.16-.02,15.23.02,1.03,0,2.09.14,3.1.37.85.19,1.5.83,1.32,1.75-.34,1.77-.34,3.77-2.32,4.77h0s0,0,0,0c-1.36.11-2.73.3-4.09.31-7.04.03-14.07-.02-21.11.03-5.03.04-3.62-.76-5.01,4.09-.41,1.45-.07,1.76,1.36,1.75,7.2-.06,14.39-.01,21.59-.03,2.58,0,5.17.1,7.74-.35,4.99-.87,7.38-3.27,8.21-8.41h0c.55-1.89,1.57-3.74.51-5.77-.43-1.4-1.11-2.56-2.63-3.08-1.7-.58-3.46-.75-5.23-.76-5.48-.02-10.96,0-16.44-.02-3.53-.02-3.9-.47-3.42-3.93h0c.69-2.27,2.28-3.08,4.59-3.07,8,.05,15.99.02,23.99.02,3.71,0,3.59-.03,4.6-3.72.52-1.88-.04-2.17-1.75-2.15Z"/>
    <path class="cls-1" d="M236.3,234.4c-6.22,0-12.45-.04-18.67.03-2.24.02-4.54-.09-6.63,1-4.27,1.4-5.57,4.9-6.26,8.83h0s0,0,0,0c-1.48,5.82.09,7.97,6.06,8.27.89.05,1.78.03,2.67.03,5.01,0,10.02-.02,15.03.01,3.89.03,4.58,1.06,3.44,4.72-.38,1.21-1.23,1.81-2.18,2.42,0,0,0,0,0,0-8.25.03-16.51.06-24.76.09-4.1.01-4,.03-5.02,4.02-.46,1.79.27,1.83,1.63,1.82,7.2-.04,14.41,0,21.61-.02,2.42,0,4.85.08,7.27-.31,6.51-1.07,10.92-8.51,8.77-14.85-.25-1.36-1.26-1.98-2.43-2.41-1.68-.63-3.45-.8-5.23-.81-5.64,0-11.29-.03-16.93,0-2.08.01-3.5-.54-3.22-2.98.66-3.12,1.66-3.99,4.96-4,7.6-.03,15.2,0,22.8-.04.6,0,1.59.52,1.77-.58.25-1.52-3.12-5.23-4.67-5.24Z"/>
    <path class="cls-1" d="M290.74,234.39h-2.17c-14.08,0-28.17,0-42.25,0-.57,0-1.13,0-1.7.02-.38.02-.81,0-.9.55-.22,1.37,2.92,5.33,4.35,5.35,3.88.04,7.77.1,11.65-.01,1.74-.05,2.07.54,1.67,2.09-1.02,3.98-1.96,7.99-2.93,11.98h0c-.78,3.26-1.56,6.52-2.32,9.79-.18.78-.49,1.76,1,1.37h0q6.23.32,7.6-5.56c.09-.39.12-.79.18-1.18h0s0,0,0,0c.77-2.88,1.69-5.73,1.97-8.72h0,0c.74-2.91,1.51-5.82,2.22-8.74.26-1.07,1.02-1.06,1.85-1.06,3.06.01,6.14-.17,9.18.05,3.7.27,7,.04,8.85-3.8.17-.35.5-.61.76-.92.48-.21,1.09-.3.99-1.21Z"/>
    <path class="cls-1" d="M320.99,234.64c-5.88-.37-11.78-.27-17.68-.08,0,0,0,0,0,0,0,0,0,0,0,0-9.11-.58-13.6,2.8-15.44,11.64-.53,2.42-1.06,4.84-1.59,7.26-.56,1.43-.87,2.91-.99,4.44-.35,4.6,1.52,6.79,6.25,7.26.22.1.43.28.65.28,8.01.19,16.03.67,23.99-.44,3.7-.52,6.6-2.51,7.98-6.22,1.39-2.92,1.88-6.07,2.45-9.2,0,0,0,0,0,0h0c.49-1.95,1.1-3.88,1.45-5.85,1.08-5.94-1.02-8.72-7.08-9.09ZM320.27,244.9c-.28,1.57-1.07,3.03-.94,4.68-.84,1.65-.87,3.5-1.34,5.25-.4,1.49-.95,2.84-2.04,3.95-1.56.7-3.19.99-4.91.97-4.42-.04-8.85-.03-13.27,0-1.48,0-2.88-.2-4.19-.9-1.02-1.83-.18-3.62.12-5.41.16-.95.63-1.84.47-2.84.52-2.01,1.04-4.02,1.57-6.03.67-2.55,2.26-4.11,4.96-4.14,5.4-.07,10.81-.14,16.22,0,3.01.08,3.89,1.46,3.35,4.49Z"/>
    <path class="cls-1" d="M438.58,264.19c-.9-1.78-1.75-3.58-2.62-5.37-1.54-3.46-2.85-7.03-4.79-10.31-1.82-4.01-3.6-8.03-5.48-12.01-.63-1.33-1.53-2.49-3.26-2.46-.3-.1-.59-.16-.88-.19-2.34-.4-4.42.28-6.13,2.04-3.12,3.2-6.13,6.5-9.19,9.76h0s0,0,0,0c-2.27,2.42-4.53,4.84-6.8,7.26-3.91,4.1-7.82,8.19-11.8,12.36.92.48,1.54.37,2.17.23,1.36.03,2.72.1,4.09.08,1.01-.02,2.09.29,2.92-.67,1.51-1.75,3.07-3.46,4.61-5.19,0,0,0,0,0,0,.87-.87,1.79-1.39,3.15-1.37,6.91.08,13.82.06,20.73.01,1.18,0,2.02.29,2.53,1.37q2.35,5.88,8.44,5.87c.48,0,.97-.03,1.45,0,1.2.07,1.4-.39.88-1.41ZM407.82,245.74s-.02.03-.03.04c0-.01-.02-.03-.03-.05.02,0,.04,0,.06,0,0,0,0,0,0,0,0,0,0,0,0,0ZM421.82,253.24c-3.8,0-7.59.01-11.39,0-.77,0-1.6.2-2.31-.26.12-1.17,1.38-1.45,1.61-2.42,2.65-2.8,5.37-5.54,7.91-8.43,1.25-1.42,1.67-1.14,2.37.41,1.22,2.69,2.15,5.53,3.76,8.04q.85,2.66-1.96,2.67Z"/>
    <path class="cls-1" d="M473.06,234.42c-13.59-.02-27.18-.02-40.77,0-.51,0-1.13-.22-1.59.5.39.82.94,1.64,1.19,2.54.67,2.34,2.19,3.04,4.52,2.9,2.74-.16,5.5-.04,8.25-.04,4.25,0,4.22,0,3.19,4.23-1.57,6.42-3.11,12.84-4.61,19.27-.17.71-1.08,2.15.98,1.71,1.61.02,3.22.04,4.83.07.76.01,1.51,0,1.66-.97,0,0,0,0,0,0,0,0,.27-1.08.68-2.77.19-.65.36-1.31.48-1.98.42-1.73.91-3.78,1.41-5.87.07-.28.14-.56.2-.84,1.14-4.86,2.24-9.77,2.42-11.42h0c.22-.44.52-.81.94-1.07,1.82-1.13,4.87-.69,7.29-.34,4.33.62,7.42-.91,9.71-4.44.04-.07.07-.14.11-.21h0c.27-.28.81-.66.76-.83-.29-.85-1.09-.45-1.66-.45Z"/>
  </g>
  <path class="cls-1" d="M126.16,250s0,0,0,0c.02-.56.04-1.12,0-1.68-.07-2.74-.48-8.38-2.49-13.46-.37-1.15-.7-2.31-1.2-3.41-.47-1.23-.96-2.45-1.58-3.61h0,0c-.19-.41-.37-.82-.58-1.21-.74-1.39-1.44-2.8-2.36-4.08t0,0h0c-1.16-1.99-2.55-3.82-4.02-5.58-2.59-3.08-5.56-5.74-8.89-8.01-2.43-1.66-4.95-3.17-7.59-4.47,0,0,0,0,0,0-2.69-1.35-5.54-2.27-8.47-2.97,0-.08-.06-.1-.13-.12-3.59-.98-7.24-1.61-10.95-1.79-2.26-.11-4.53-.1-6.79.17-2.02.23-4.04.42-6.02.85-9.16,2-17.07,6.38-23.92,12.71-4.58,4.22-8.18,9.17-10.84,14.81-2.85,6.05-4.55,12.39-4.95,19.06-.13,2.23-.13,4.47.09,6.7.14,2.03.41,4.04.88,6.02h0s0,0,0,0c.24,1.5.66,2.96,1.11,4.4.45,1.58,1.02,3.12,1.68,4.63,0,0,.9,2.1,2.21,4.62.18.4.39.78.62,1.16.78,1.43,1.65,2.9,2.55,4.14.02.03.05.06.07.1.1.13.19.26.29.39.38.64.85,1.21,1.31,1.8.53.67,1.07,1.34,1.6,2,0,0,0,0,0,0,.86,1.04,1.77,2.04,2.7,3.01h0s0,0,0,0c.06.13.16.23.3.3.27.23.47.54.8.72,1.5,1.52,3.2,2.8,4.95,4.02,1.59,1.1,3.23,2.13,4.97,2.99.29.25.65.38,1,.52.18.14.38.24.6.3.71.41,1.47.72,2.22,1.04,1.54.65,3.09,1.29,4.71,1.73.9.4,1.87.59,2.82.85,3.52.97,7.1,1.54,10.74,1.74,2.06.11,4.13.1,6.2-.06,1.99-.15,3.97-.4,5.91-.86,5.18-1.21,10.14-3.04,14.8-5.65,5.84-3.28,10.84-7.54,14.95-12.82,3.66-4.71,6.37-9.93,8.22-15.6.63-1.92,1.19-3.86,1.53-5.85,0,0,0,0,0,0,.35-1.32.6-2.67.69-4.04h0c.1-.13.09-.28.1-.42.06-.86.12-1.72.19-2.58.05-.84.05-1.67.01-2.51ZM85.29,278.11c-.41,2.68-1.99,4.63-4.02,6.29-.55.22-.96.65-1.43.98-2.14,1.47-4.46,2.6-6.88,3.52-.18.07-.39.09-.51.29-.12.14-.29.15-.44.2-3.05,1.06-6.18,1.78-9.38,2.22-1.67.13-3.34.24-5.01.19-.16-.13-.35-.07-.52-.09-.7-.08-1.42-.12-2.08-.4t0,0c-.8-.44-1.6-.87-2.41-1.31h0s0,0,0,0l-1.06-.65c-.19-.12-.38-.24-.56-.36-.09-.06-.17-.11-.25-.13l-.98-.6c-1.75-1.16-3.37-2.49-4.97-3.85l-2.78-2.72c-.58-.66-1.16-1.32-1.74-1.99h0l-1.38-1.72s-4.58-6.71-6.05-10.79c0-.02-.02-.05-.03-.07-.03-.08-.06-.15-.08-.22-.3-.79-.56-1.6-.86-2.4-.18-.48-.24-1-.49-1.45-.1-.4-.21-.8-.31-1.2-.26-1.11-.52-2.22-.78-3.32,0-.03-.01-.06-.02-.09-.19-1.5-.44-2.98-.57-4.49-.04-.45.04-.92-.08-1.36.03-.04.05-.08.06-.14.08-1.93-.06-3.86.11-5.79,0,.1.06.19.1.28.65,1.48,1.58,2.78,2.7,3.93,1.33,1.37,2.89,2.46,4.52,3.44,1.5.86,3.07,1.56,4.66,2.24.52.2,1.04.42,1.6.5.06,0,.1-.02.15-.04.99.4,2.01.73,3.07.94.02,0,.04.02.06.02,1.2.39,2.43.67,3.66.96h0c.19.06.38.13.57.18,1.18.28,2.35.56,3.53.84,0,0,0,0,0,0,.52.24,1.09.29,1.63.44.99.27,1.99.5,2.99.75,0,0,0,0,0,0,0,0,0,0,0,0,1.74.44,3.48.87,5.22,1.31,1.17.36,2.34.72,3.52,1.08,0,0,0,0,0,0,.56.18,1.12.36,1.68.54,0,0,0,0,0,0,.57.2,1.14.4,1.71.59h0c.74.29,1.48.58,2.21.88h0c.97.43,1.94.87,2.91,1.3,1.34.68,2.64,1.41,3.91,2.2.92.66,1.82,1.35,2.66,2.11,2.08,1.89,2.89,4.22,2.46,6.98ZM111.94,249.31s0,0,0,0c0,0-.02,0-.03,0,0,0,.01-.02.02-.03,0,0,0,.01,0,.02,0,0,0,.02,0,.02h0ZM121.77,253.08c-.04-.07-.09-.14-.12-.21-1.37-2.85-3.55-4.94-6.21-6.58h0c-.27-.19-.54-.37-.81-.56-.69-.35-1.39-.7-2.08-1.05-.37-.2-.75-.39-1.12-.59-.73-.27-1.47-.54-2.2-.8-.93-.45-1.92-.73-2.91-1h0c-.13-.06-.27-.13-.4-.19-.84-.2-1.67-.4-2.51-.61-.02,0-.04-.02-.06-.02-.86-.28-1.75-.44-2.64-.59,0,0,0,0,0,0-.83-.29-1.7-.39-2.56-.59-.55-.13-1.08-.32-1.66-.31h0s0,0,0,0c-2.01-.46-4.01-.92-6.02-1.38-.13-.02-.26-.03-.39-.07-1.31-.38-2.61-.76-3.92-1.14,0,0,0,0,0,0-.36-.11-.71-.22-1.07-.33-.82-.25-1.6-.59-2.44-.78-1.37-.54-2.74-1.07-4.11-1.61h0s0,0,0,0c-.08-.03-.15-.04-.22-.08-1-.48-2.01-.97-3.01-1.45,0-.01,0-.02,0-.03-.44-.42-.99-.66-1.5-.97-2.05-1.23-4.03-2.55-5.56-4.43-1.81-2.21-2.46-4.65-1.4-7.41.76-2.11,2.2-3.69,3.93-5.04,1.33-1.08,2.79-1.94,4.32-2.7,1.39-.69,2.83-1.27,4.28-1.79,3.46-1.16,6.99-2,10.64-2.27,1.57-.12,3.13-.11,4.69.04,1.23.12,2.28.68,3.34,1.27,3.17,1.75,6.13,3.79,8.78,6.27,2.27,2.12,4.39,4.38,6.19,6.94.25.35.46.74.83.99.02,0,.04.01.05.02,1.09,1.66,2.1,3.37,3.04,5.12.06.15.11.31.19.46.51,1.07,1.03,2.13,1.44,3.24.4,1.07.79,2.14,1.19,3.21.24.87.47,1.75.72,2.62,0,0,1.37,5.44,1.38,9.33,0,1.03,0,2.06,0,3.09,0,0,0,0,0,0,0,0,0,0,0,0,0,.19,0,.38,0,.58,0,.07,0,.14,0,.23,0,0,0,0,0,0,0,0,0,0,0,0,0,0,0,0,0,0-.05.39.06.79-.09,1.17Z"/>
</svg>