<?xml version="1.0" encoding="UTF-8"?>
<svg id="Layer_1" data-name="Layer 1" xmlns="http://www.w3.org/2000/svg" viewBox="0 0 500 500">
  <defs>
    <style>
      .cls-1 {
        fill: #fff;
        stroke-width: 0px;
      }
    </style>
  </defs>
  <path class="cls-1" d="M248.57,241.29c3.76-7.59,4.33-15.46,2.41-23.59-3.09-13.08-14.43-22.13-27.88-22.17-18.9-.06-37.8-.02-56.7-.01-3.36,0-3.6.26-3.6,3.66,0,15.05,0,30.11,0,45.16,0,15.05,0,30.11,0,45.16,0,3.6.25,3.88,3.92,3.88,19.31,0,38.62.14,57.93-.1,4.07-.05,8.44-.82,12.13-2.47,10-4.46,15.61-12.75,17.2-23.41,1.22-8.14-.7-15.84-5.2-22.86-.52-.82-.64-2.38-.22-3.24ZM185.91,222.2c-.03-1.45.6-2.07,2.05-2.06,11.95.02,23.89-.03,35.84.06,3.06.02,5.66,3.03,5.6,6.06-.06,2.96-2.6,5.64-5.63,5.68-5.89.07-11.78.02-17.67.02,0,0,0,.02,0,.03-5.81,0-11.62-.05-17.43.03-1.96.02-2.88-.63-2.78-2.69.11-2.37.06-4.75.02-7.12ZM226.01,268.68c-6.38.08-12.76.02-19.15.02v.02c-6.05,0-12.11-.07-18.16.04-2.16.04-2.93-.76-2.82-2.87.13-2.28.06-4.58.03-6.87-.02-1.45.62-2.07,2.06-2.07,12.76.02,25.53-.02,38.29.05,2.71.01,5.3,3.06,5.26,5.81-.04,2.92-2.66,5.84-5.52,5.88Z"/>
  <path class="cls-1" d="M125.33,195.52c-6.14.01-12.27.03-18.41-.02-1.58-.01-2.46.66-2.82,2.13-.64,2.61-1.34,5.21-1.89,7.85-1.51,7.09-2.89,14.2-4.44,21.28-1.58,7.23-3.33,14.43-4.94,21.66-1.33,5.97-2.65,11.94-3.78,17.95-.41,2.2-1.61,2.52-3.45,2.36-2.3-.19-2.01-2.17-2.32-3.51-2.25-9.79-4.4-19.6-6.53-29.41-2.71-12.53-5.41-25.07-8-37.63-.42-2.05-1.4-2.71-3.33-2.67-3.27.07-6.54.02-9.82.02-6.71,0-13.42-.01-20.12.01-2.76.01-3.15.46-2.8,3.2.15,1.21.52,2.39.77,3.59,2.29,10.87,4.55,21.74,6.88,32.6,1.13,5.26,2.48,10.47,3.59,15.73,1.48,7.02,2.79,14.08,4.25,21.1,1.26,6.07,2.7,12.1,3.94,18.17.61,2.99.97,3.46,3.97,3.47,7.85.02,15.71,0,23.56,0,8.1,0,16.2-.03,24.3.01,2.01.01,3.11-.66,3.56-2.8,2.88-13.58,5.9-27.12,8.83-40.69,3.72-17.25,7.37-34.5,11.08-51.75.39-1.82-.22-2.64-2.07-2.64Z"/>
  <path class="cls-1" d="M341.47,286.26c-2.58-12.2-5.1-24.42-7.72-36.61-1.11-5.17-2.5-10.27-3.62-15.44-.93-4.31-1.58-8.67-2.47-12.99-1.53-7.42-3.2-14.81-4.71-22.23-.56-2.75-1.2-3.47-4.04-3.47-6.55-.02-13.09,0-19.64,0-6.71,0-13.42.04-20.13-.03-1.93-.02-3.17.66-3.58,2.56-.88,4.06-1.72,8.13-2.57,12.19-1.39,6.63-2.74,13.26-4.17,19.87-1.97,9.16-4.05,18.3-5.99,27.47-1.11,5.26-1.96,10.57-3.1,15.83-1.22,5.65-2.67,11.24-3.97,16.87-.46,1.98.2,3.13,2.48,3.11,5.97-.06,11.95-.04,17.92-.02,1.69,0,2.8-.45,2.96-2.42.14-1.78.28-3.65.95-5.26.66-1.57.31-4.15,3.21-4.14,10.56.03,21.12.03,31.67-.01,1.54,0,2.19.65,2.48,2.07.5,2.4,1.23,4.75,1.64,7.17.3,1.78,1.16,2.59,2.93,2.58,6.14,0,12.28,0,18.41,0,2.27,0,2.57-1.32,2.14-3.11-.32-1.35-.81-2.66-1.1-4.01ZM308.83,256.98c-3.27-.08-6.54-.02-9.81-.02-3.35,0-6.7-.03-10.05,0-1.75.02-2.42-.29-1.93-2.42,1.64-7.05,2.95-14.18,4.44-21.27.78-3.73,1.33-7.56,2.61-11.12,1.41-3.94,5.12-1.36,7.73-1.98,1.73-.41,2.49.78,2.8,2.32,1.41,7.11,2.81,14.22,4.25,21.32.71,3.51,1.42,7.03,2.31,10.51.59,2.29-.41,2.7-2.36,2.65Z"/>
  <path class="cls-1" d="M465.57,268.74c-18.25,0-36.5,0-54.75,0-12.52,0-25.05-.06-37.57.04-2.39.02-3.62-.54-3.21-3.12.06-.4,0-.82,0-1.23,0-21.77,0-43.54,0-65.31,0-3.43-.18-3.59-3.62-3.59-5.07-.01-10.15,0-15.22,0q-3.78,0-3.79,3.85c0,30.04,0,60.07,0,90.11,0,3.81.08,3.89,3.81,3.9,18.91,0,37.81,0,56.72,0,19.23,0,38.47,0,57.7,0,3.01,0,3.25-.24,3.25-3.19.02-6.06.01-12.11,0-18.17,0-3.22-.08-3.28-3.32-3.28Z"/>
  <path class="cls-1" d="M151.57,195.52c-5.24-.01-10.47-.01-15.71,0-3.47,0-3.62.15-3.62,3.59,0,15.14,0,30.28,0,45.42,0,15.14,0,30.28,0,45.42,0,3.1.3,3.41,3.34,3.43,5.24.03,10.47.02,15.71,0,3.48-.01,3.77-.31,3.78-3.79.01-10.56.01-21.11.01-31.67,0-19.64,0-39.28-.01-58.92,0-3.22-.27-3.48-3.5-3.49Z"/>
</svg>